<svg width="100" height="100" viewBox="0 0 100 100" fill="none" xmlns="http://www.w3.org/2000/svg">
<path d="M100 50C100 53.7919 96.5448 57.1314 95.7561 60.6794C94.9404 64.3414 96.6179 68.8806 95.0596 72.1848C93.4744 75.5439 88.9419 77.0229 86.6872 79.9101C84.4248 82.8091 84.0092 87.6512 81.1774 89.968C78.3571 92.273 73.6476 91.6122 70.3617 93.2327C67.1297 94.8258 64.7095 99.0149 61.1274 99.8488C57.6568 100.655 53.7091 97.9726 50 97.9726C46.2909 97.9726 42.3394 100.655 38.8726 99.8488C35.4059 99.0425 32.8703 94.8258 29.6383 93.2327C26.3524 91.6122 21.6468 92.273 18.8226 89.968C15.9869 87.6551 15.5752 82.8091 13.3128 79.9101C11.0581 77.0269 6.52559 75.5439 4.94037 72.1848C3.38207 68.8806 5.05579 64.3414 4.24394 60.6794C3.43209 57.0173 0 53.7919 0 50C0 46.2081 3.45517 42.8686 4.24394 39.3206C5.05964 35.6586 3.38207 31.1193 4.94037 27.8152C6.52559 24.4561 11.0581 22.9771 13.3128 20.0899C15.5752 17.1909 15.9908 12.3488 18.8226 10.032C21.6429 7.72701 26.3524 8.38783 29.6383 6.76725C32.8703 5.17419 35.2905 0.985047 38.8726 0.151152C42.3432 -0.655209 46.2909 2.02742 50 2.02742C53.7091 2.02742 57.6606 -0.655209 61.1274 0.151152C64.7095 0.985047 67.1297 5.17419 70.3617 6.76725C73.6476 8.38783 78.3532 7.72701 81.1774 10.032C84.0131 12.3449 84.4248 17.1909 86.6872 20.0899C88.9419 22.9731 93.4744 24.4561 95.0596 27.8152C96.6179 31.1193 94.9442 35.6586 95.7561 39.3206C96.5448 42.8686 100 46.2081 100 50Z" fill="url(#paint0_linear_1025_764)"/>
<defs>
<linearGradient id="paint0_linear_1025_764" x1="10.4232" y1="24.342" x2="93.1401" y2="75.6474" gradientUnits="userSpaceOnUse">
<stop stop-color="#FFAA00"/>
<stop offset="0.29" stop-color="#FF7C13"/>
<stop offset="0.95" stop-color="#FF0943"/>
<stop offset="1" stop-color="#FF0048"/>
</linearGradient>
</defs>
</svg>
