<svg width="140" height="140" viewBox="0 0 140 140" fill="none" xmlns="http://www.w3.org/2000/svg">
<g opacity="0.25">
<path d="M77.233 17.5819L78.9246 9.5662L79.9513 9.78525L79.2318 13.2015L83.5519 14.1181L84.2714 10.7018L85.2981 10.9209L83.6066 18.9366L82.5798 18.7176L83.3628 15.0183L79.0418 14.1088L78.2589 17.8081L77.2321 17.5891L77.233 17.5819Z" fill="#1F1F1F"/>
<path d="M88.0877 20.6214C87.4205 20.3733 86.9283 20.0592 86.596 19.6845C86.2637 19.3098 86.0913 18.8746 86.0573 18.3762C86.0305 17.8787 86.1341 17.3243 86.3617 16.705L88.2146 11.7908L89.2285 12.1754L87.3145 17.2349C87.0796 17.8533 87.06 18.3743 87.2485 18.7969C87.4369 19.2195 87.8191 19.5421 88.3959 19.7575C88.7775 19.9055 89.1337 19.9633 89.4574 19.9299C89.7811 19.8964 90.0651 19.771 90.3094 19.5535C90.5537 19.336 90.7601 19.0121 90.9125 18.5945L92.8266 13.535L93.8127 13.9091L91.919 18.9201C91.6948 19.5107 91.4138 19.9709 91.0608 20.3061C90.7149 20.6421 90.2916 20.8379 89.7972 20.9015C89.3037 20.9579 88.7335 20.8669 88.0734 20.6197L88.0877 20.6214Z" fill="#1F1F1F"/>
<path d="M92.4191 22.2087L96.5533 15.1362L97.801 15.8691L96.5203 22.9533L102.095 18.3744L103.344 19.1001L99.2098 26.1726L98.274 25.6229L101.612 19.9075L96.225 24.4294L95.377 23.934L96.6514 17.0816L93.3423 22.7423L92.4128 22.2007L92.4191 22.2087Z" fill="#1F1F1F"/>
<path d="M100.203 26.9178L107.73 22.5392L108.641 23.2966L105.658 31.4755L104.841 30.7876L105.664 28.5542L103.092 26.396L101.036 27.6003L100.218 26.9195L100.203 26.9178ZM103.908 25.8408L106.051 27.6345L107.523 23.7062L103.908 25.8408Z" fill="#1F1F1F"/>
<path d="M106.523 32.3727L112.67 26.9691L113.334 27.7256L111.405 35.1819L116.186 30.9791L116.875 31.7677L110.728 37.1713L110.108 36.471L112.057 28.9081L107.211 33.1685L106.522 32.3798L106.523 32.3727Z" fill="#1F1F1F"/>
<path d="M114.685 43.2336L121.826 39.2225L122.34 40.1353L115.199 44.1464L114.685 43.2336Z" fill="#1F1F1F"/>
<path d="M116.18 45.8211L123.71 42.6132L124.1 43.5327L119.944 50.0065L125.797 47.511L126.21 48.477L118.68 51.6849L118.312 50.8262L122.531 44.251L116.594 46.7799L116.181 45.814L116.18 45.8211Z" fill="#1F1F1F"/>
<path d="M119.699 55.2539L126.681 53.3897L126.003 50.836L126.934 50.5856L128.533 56.5726L127.601 56.8231L126.957 54.4117L119.975 56.2759L119.706 55.2548L119.699 55.2539Z" fill="#1F1F1F"/>
<path d="M120.785 59.7688L128.9 58.6888L129.579 63.8084L128.665 63.9228L128.127 59.8525L125.476 60.2069L125.961 63.8711L125.053 63.9935L124.561 60.3213L121.859 60.6839L122.404 64.8715L121.481 64.9921L120.786 59.7616L120.785 59.7688Z" fill="#1F1F1F"/>
<path d="M121.544 66.5625L129.728 66.5304L129.736 67.5999L122.489 67.6366L122.507 71.5057L121.569 71.5083L121.544 66.5625Z" fill="#1F1F1F"/>
<path d="M121.437 72.8372L129.579 73.6939L129.464 74.7559L122.256 73.9977L121.854 77.845L120.922 77.7465L121.438 72.83L121.437 72.8372Z" fill="#1F1F1F"/>
<path d="M120.568 79.1789L128.583 80.8416L128.371 81.8699L120.356 80.2071L120.568 79.1789Z" fill="#1F1F1F"/>
<path d="M118.959 84.9441C119.18 84.2586 119.529 83.7194 119.998 83.3257C120.475 82.9328 121.048 82.6971 121.726 82.6194C122.403 82.5417 123.161 82.6409 124.008 82.9107C124.854 83.1806 125.535 83.5539 126.046 84.0157C126.556 84.4774 126.891 85.0123 127.05 85.6203C127.208 86.2283 127.174 86.871 126.953 87.5565C126.825 87.9481 126.638 88.2961 126.391 88.5933C126.144 88.8976 125.86 89.1394 125.539 89.333C125.218 89.5195 124.883 89.646 124.527 89.7118C124.17 89.7775 123.83 89.7654 123.499 89.6816L123.839 88.6108C124.14 88.6473 124.448 88.6264 124.75 88.5322C125.052 88.438 125.325 88.2822 125.561 88.071C125.797 87.8598 125.969 87.5826 126.074 87.2537C126.216 86.8057 126.232 86.3715 126.122 85.9656C126.012 85.5525 125.752 85.1794 125.357 84.8407C124.955 84.5012 124.401 84.2231 123.681 83.9904C123.128 83.8144 122.631 83.7178 122.205 83.7023C121.77 83.6932 121.4 83.7501 121.087 83.8721C120.774 84.0012 120.512 84.1803 120.308 84.4245C120.104 84.6687 119.947 84.9476 119.842 85.2693C119.737 85.5982 119.701 85.899 119.739 86.1799C119.778 86.4608 119.857 86.7102 119.99 86.9299C120.123 87.1496 120.275 87.3352 120.459 87.4956C120.643 87.656 120.825 87.7654 121.021 87.8327L121.701 88.0898L122.309 86.1937L123.043 86.4281L122.092 89.3583L118.072 88.0638L118.316 87.3156L119.504 87.6996C119.326 87.4891 119.173 87.2525 119.039 86.9818C118.905 86.7111 118.833 86.4043 118.801 86.0662C118.77 85.728 118.83 85.35 118.96 84.937L118.959 84.9441Z" fill="#1F1F1F"/>
<path d="M117.366 89.6793L124.726 93.2688L122.462 97.9151L121.633 97.502L123.432 93.8097L121.032 92.639L119.409 95.9601L118.586 95.555L120.21 92.2267L117.755 91.0276L115.893 94.8213L115.056 94.4144L117.367 89.6722L117.366 89.6793Z" fill="#1F1F1F"/>
<path d="M114.298 95.7689L121.052 100.397L120.487 101.222L112.789 101.197L118.041 104.793L117.449 105.659L110.696 101.031L111.225 100.259L119.031 100.283L113.706 96.6348L114.298 95.7689Z" fill="#1F1F1F"/>
<path d="M107.364 104.602C107.864 104.067 108.415 103.719 109.015 103.567C109.614 103.414 110.241 103.461 110.888 103.692C111.536 103.923 112.182 104.343 112.835 104.953C113.48 105.562 113.943 106.178 114.209 106.799C114.475 107.42 114.553 108.033 114.436 108.637C114.32 109.24 114.01 109.813 113.502 110.348C113.109 110.773 112.668 111.061 112.191 111.221C111.714 111.381 111.236 111.425 110.758 111.352C110.28 111.28 109.852 111.097 109.466 110.803L110.226 109.987C110.503 110.166 110.795 110.274 111.1 110.332C111.406 110.384 111.706 110.362 112.008 110.268C112.31 110.174 112.595 109.983 112.854 109.702C113.188 109.343 113.395 108.954 113.459 108.547C113.523 108.141 113.438 107.709 113.203 107.244C112.968 106.787 112.577 106.296 112.029 105.786C111.194 105.009 110.454 104.577 109.795 104.497C109.137 104.417 108.556 104.652 108.047 105.194C107.781 105.474 107.621 105.775 107.547 106.085C107.48 106.397 107.486 106.71 107.565 107.018C107.643 107.325 107.783 107.611 107.976 107.875L107.216 108.691C106.994 108.424 106.813 108.126 106.671 107.796C106.529 107.467 106.461 107.131 106.447 106.766C106.433 106.408 106.498 106.045 106.645 105.678C106.791 105.31 107.024 104.946 107.358 104.587L107.364 104.602Z" fill="#1F1F1F"/>
<path d="M104.259 107.86L109.423 114.214L105.417 117.472L104.836 116.754L108.019 114.168L106.331 112.095L103.462 114.429L102.88 113.719L105.756 111.385L104.038 109.265L100.752 111.919L100.164 111.194L104.258 107.867L104.259 107.86Z" fill="#1F1F1F"/>
<path d="M95.1402 117.81C95.3188 117.715 95.5056 117.672 95.7006 117.681C95.8956 117.69 96.0774 117.749 96.2388 117.856C96.4074 117.963 96.5358 118.102 96.6303 118.281C96.7249 118.46 96.7676 118.647 96.7585 118.842C96.7493 119.037 96.6909 119.219 96.5913 119.381C96.4917 119.544 96.3526 119.672 96.1669 119.766C95.9884 119.86 95.8016 119.903 95.6065 119.894C95.4115 119.885 95.2297 119.827 95.0674 119.727C94.898 119.626 94.7705 119.48 94.6759 119.302C94.5814 119.123 94.5395 118.929 94.5487 118.734C94.5578 118.539 94.6162 118.357 94.7167 118.187C94.8172 118.018 94.9634 117.89 95.142 117.795L95.1402 117.81Z" fill="#1F1F1F"/>
<path d="M87.0049 118.175L86.3579 126.862L85.2149 127.181L80.1618 120.092L81.1921 119.803L82.5693 121.743L85.8024 120.842L85.9818 118.465L87.0049 118.175ZM85.797 121.844L83.1127 122.594L85.5212 126.034L85.8042 121.845L85.797 121.844Z" fill="#1F1F1F"/>
<path d="M78.9378 120.3L79.8979 128.433L78.9028 128.553L73.8622 122.737L74.6065 129.056L73.5676 129.177L72.6074 121.044L73.5364 120.931L78.6542 126.829L77.8997 120.413L78.9387 120.292L78.9378 120.3Z" fill="#1F1F1F"/>
<path d="M70.7342 121.1L70.453 129.287C70.453 129.287 70.3447 129.281 70.215 129.273C70.0781 129.263 69.9188 129.258 69.7229 129.256C69.527 129.254 69.332 129.245 69.1227 129.235C68.9133 129.224 68.7254 129.215 68.5519 129.209C67.5481 129.16 66.7433 128.968 66.1294 128.639C65.5163 128.303 65.071 127.842 64.8032 127.235C64.5345 126.635 64.4129 125.901 64.4385 125.032C64.4683 124.127 64.6544 123.372 64.9894 122.765C65.3245 122.159 65.822 121.711 66.4749 121.419C67.1277 121.128 67.9493 121.002 68.9405 121.035L70.7342 121.1ZM69.6272 121.962L68.9106 121.94C68.2379 121.917 67.6541 121.998 67.1583 122.193C66.6626 122.387 66.2818 122.711 65.9999 123.179C65.7189 123.639 65.5699 124.268 65.5397 125.056C65.5094 125.845 65.6145 126.476 65.8559 126.941C66.0964 127.414 66.4473 127.754 66.9231 127.965C67.3979 128.182 67.9717 128.303 68.6453 128.319L69.412 128.346L69.6343 121.962L69.6272 121.962Z" fill="#1F1F1F"/>
<path d="M57.8782 119.57C58.2668 119.66 58.6286 119.792 58.9557 119.969C59.2828 120.147 59.5698 120.356 59.8078 120.611C60.0529 120.866 60.2292 121.149 60.3502 121.469C60.4712 121.789 60.5163 122.136 60.4774 122.516L59.4103 122.271C59.4127 121.951 59.3383 121.666 59.1943 121.416C59.0432 121.165 58.8367 120.951 58.5668 120.78C58.297 120.609 57.9924 120.485 57.6388 120.406C57.2995 120.328 56.9747 120.311 56.6645 120.353C56.3543 120.395 56.0881 120.494 55.8713 120.664C55.6554 120.826 55.5113 121.056 55.4408 121.338C55.3659 121.656 55.4125 121.931 55.5717 122.176C55.7317 122.413 56.0161 122.644 56.4185 122.86L57.9626 123.665C58.3112 123.845 58.6133 124.049 58.8539 124.282C59.1016 124.515 59.2716 124.79 59.372 125.101C59.4724 125.411 59.4719 125.774 59.3795 126.177C59.2737 126.63 59.0621 126.997 58.7304 127.276C58.4058 127.557 58.0057 127.741 57.5302 127.828C57.0618 127.917 56.5554 127.899 56.0111 127.775C55.389 127.634 54.8872 127.399 54.5041 127.083C54.1282 126.769 53.8667 126.41 53.7274 126.001C53.5874 125.598 53.5636 125.196 53.6561 124.793L54.7017 125.036C54.6565 125.408 54.6916 125.718 54.8204 125.973C54.9492 126.229 55.1423 126.434 55.3852 126.587C55.6282 126.74 55.9121 126.854 56.23 126.929C56.802 127.064 57.2635 127.033 57.6143 126.835C57.9651 126.638 58.1869 126.367 58.2661 126.013C58.3419 125.688 58.2962 125.406 58.1289 125.168C57.9617 124.93 57.6899 124.715 57.3001 124.515L55.7973 123.729C55.3519 123.508 55.004 123.262 54.7758 122.988C54.5476 122.713 54.3936 122.425 54.3371 122.113C54.2796 121.808 54.2892 121.489 54.357 121.17C54.4609 120.732 54.6725 120.366 54.9989 120.071C55.3252 119.776 55.7324 119.593 56.224 119.493C56.7148 119.399 57.2569 119.422 57.8576 119.56L57.8782 119.57Z" fill="#1F1F1F"/>
<path d="M50.7923 117.387C51.4722 117.651 51.9995 118.035 52.3752 118.531C52.7509 119.027 52.9614 119.627 53.0023 120.308C53.0432 120.989 52.9072 121.75 52.5819 122.576C52.2557 123.408 51.8493 124.064 51.3474 124.548C50.8455 125.033 50.2938 125.329 49.6698 125.442C49.053 125.557 48.4079 125.486 47.7352 125.222C47.0625 124.959 46.5351 124.575 46.1666 124.08C45.7918 123.576 45.5876 122.985 45.5475 122.297C45.5075 121.608 45.6515 120.841 45.9777 120.008C46.2959 119.182 46.7095 118.527 47.1962 118.048C47.69 117.57 48.2418 117.274 48.8514 117.159C49.461 117.044 50.1053 117.122 50.7852 117.386L50.7923 117.387ZM50.4644 118.234C49.9924 118.053 49.5485 117.999 49.1382 118.087C48.7208 118.175 48.3442 118.405 47.9922 118.792C47.6403 119.178 47.3354 119.715 47.0615 120.416C46.7867 121.124 46.6458 121.747 46.6405 122.269C46.6352 122.792 46.7638 123.229 47.0048 123.578C47.2529 123.928 47.6054 124.196 48.0703 124.376C48.5351 124.556 48.9799 124.603 49.3982 124.508C49.8164 124.414 50.2083 124.178 50.5674 123.792C50.9265 123.407 51.2403 122.856 51.5151 122.148C51.789 121.447 51.921 120.838 51.9191 120.315C51.9164 119.798 51.7878 119.361 51.5388 119.018C51.2898 118.676 50.9293 118.414 50.4653 118.227L50.4644 118.234Z" fill="#1F1F1F"/>
<path d="M46.2189 115.633L41.9897 122.65L40.7508 121.904L42.1238 114.838L36.4929 119.337L35.254 118.591L39.4832 111.574L40.411 112.13L36.9919 117.799L42.4423 113.35L43.2813 113.859L41.9147 120.693L45.2983 115.078L46.2189 115.633Z" fill="#1F1F1F"/>
<path d="M38.041 110.396L32.7626 116.661L28.815 113.333L29.4162 112.628L32.5528 115.276L34.2755 113.232L31.4484 110.846L32.0417 110.148L34.8687 112.533L36.6261 110.442L33.4052 107.711L34.0073 106.999L38.0339 110.395L38.041 110.396Z" fill="#1F1F1F"/>
<path d="M29.4519 101.809C29.7053 102.115 29.905 102.445 30.0601 102.784C30.2151 103.122 30.304 103.467 30.3419 103.814C30.3798 104.16 30.3461 104.497 30.248 104.827C30.1499 105.157 29.9676 105.462 29.702 105.735L29.0067 104.88C29.2035 104.635 29.3161 104.365 29.3589 104.072C29.3945 103.779 29.3568 103.491 29.2484 103.187C29.1391 102.89 28.9708 102.601 28.7435 102.319C28.5216 102.052 28.2793 101.833 28.0077 101.677C27.7362 101.52 27.463 101.436 27.1947 101.433C26.9192 101.429 26.6681 101.522 26.4425 101.705C26.1927 101.907 26.0532 102.159 26.0328 102.448C26.0123 102.736 26.0932 103.087 26.2816 103.51L27.0118 105.096C27.1795 105.451 27.2898 105.798 27.3438 106.132C27.3978 106.466 27.3658 106.789 27.256 107.095C27.1462 107.402 26.9227 107.687 26.5998 107.954C26.2377 108.244 25.8474 108.407 25.4172 108.421C24.987 108.434 24.5626 108.339 24.1316 108.119C23.7077 107.901 23.3184 107.577 22.9644 107.142C22.5601 106.642 22.2998 106.153 22.198 105.675C22.0898 105.189 22.107 104.748 22.2433 104.343C22.3796 103.938 22.6092 103.602 22.9312 103.344L23.6149 104.175C23.3501 104.441 23.1865 104.712 23.1383 104.99C23.0901 105.267 23.1144 105.546 23.2119 105.82C23.3095 106.093 23.4661 106.36 23.6683 106.609C24.0348 107.061 24.4177 107.318 24.816 107.388C25.2143 107.458 25.5521 107.369 25.8348 107.134C26.0934 106.918 26.2321 106.673 26.2454 106.384C26.2586 106.095 26.176 105.758 25.9913 105.365L25.2845 103.825C25.0629 103.377 24.9451 102.97 24.9305 102.612C24.9158 102.254 24.9763 101.934 25.1194 101.654C25.2624 101.373 25.4592 101.128 25.7169 100.919C26.071 100.635 26.4605 100.479 26.8933 100.444C27.3252 100.417 27.771 100.514 28.2092 100.735C28.6474 100.955 29.0691 101.311 29.4617 101.788L29.4519 101.809Z" fill="#1F1F1F"/>
<path d="M26.622 98.3038L19.6388 102.574L18.1965 100.211C17.8941 99.7091 17.7072 99.2139 17.6357 98.7255C17.5651 98.23 17.6278 97.7724 17.8169 97.3519C18.0068 96.9243 18.3481 96.5659 18.8265 96.2751C19.2897 95.9896 19.749 95.8563 20.2061 95.8609C20.6632 95.8655 21.0895 96.0044 21.4858 96.2706C21.8821 96.5367 22.2287 96.9131 22.5319 97.4078L23.4901 98.9705L26.0722 97.3866L26.6364 98.3055L26.622 98.3038ZM22.7297 99.4307L21.7849 97.8769C21.4943 97.3982 21.1175 97.0909 20.6689 96.9565C20.2203 96.8221 19.7616 96.89 19.3056 97.1763C18.8423 97.4618 18.5869 97.8306 18.5394 98.2827C18.4846 98.734 18.616 99.2079 18.912 99.7017L19.8334 101.209L22.7368 99.4316L22.7297 99.4307Z" fill="#1F1F1F"/>
<path d="M23.6464 93.48L14.9677 94.1208L14.4817 93.037L20.7439 86.9858L21.1776 87.9616L19.4589 89.6139L20.8304 92.6805L23.2055 92.5034L23.6401 93.472L23.6464 93.48ZM19.8398 92.822L18.7036 90.2709L15.6584 93.1579L19.8407 92.8148L19.8398 92.822Z" fill="#1F1F1F"/>
<path d="M20.3681 85.7697L12.4858 87.9899L11.6287 84.9348C11.4719 84.3707 11.4236 83.8705 11.4901 83.4425C11.5566 83.0144 11.7234 82.6567 11.9899 82.3764C12.2564 82.0962 12.6152 81.8926 13.0665 81.7656C13.4954 81.6432 13.8755 81.6239 14.2013 81.6925C14.5272 81.7611 14.8094 81.8898 15.048 82.0787C15.2875 82.2604 15.4877 82.4664 15.6495 82.6895L18.7926 80.1343L19.0915 81.2027L16.0991 83.5945L16.6916 85.7162L20.0837 84.7612L20.3681 85.7697ZM15.857 85.9493L15.375 84.2336C15.2074 83.639 14.9608 83.2166 14.6281 82.9654C14.2962 82.7071 13.889 82.6504 13.4154 82.782C12.9489 82.9144 12.6439 83.1536 12.4922 83.5059C12.3405 83.8582 12.3393 84.2869 12.4815 84.7911L13.0288 86.7474L15.857 85.9493Z" fill="#1F1F1F"/>
<path d="M18.5016 78.6455L10.3888 79.7111L10.2436 78.6323L14.4439 78.0806L9.76996 74.9914L9.60811 73.7506L13.1513 76.0412L17.6923 72.4416L17.8477 73.6162L14.0088 76.6976L15.8029 77.8966L18.3644 77.5604L18.5096 78.6392L18.5016 78.6455Z" fill="#1F1F1F"/>
<path d="M17.8155 68.807C17.8107 69.2062 17.7646 69.5859 17.663 69.9443C17.5614 70.3026 17.4204 70.6272 17.2246 70.9232C17.0298 71.2122 16.79 71.452 16.5053 71.6428C16.2207 71.8336 15.8866 71.953 15.511 71.9947L15.5134 70.8974C15.8262 70.8336 16.0824 70.6975 16.2955 70.498C16.5086 70.2985 16.6696 70.0491 16.7714 69.7489C16.8804 69.4495 16.9347 69.1218 16.9351 68.7584C16.9339 68.4093 16.8854 68.0909 16.7752 67.8013C16.6659 67.5046 16.505 67.2743 16.3013 67.0969C16.0905 66.9187 15.8397 66.8301 15.5498 66.824C15.2233 66.8208 14.9634 66.9274 14.7638 67.1357C14.5642 67.3441 14.4008 67.6732 14.2825 68.1095L13.8385 69.7929C13.7415 70.1736 13.6058 70.5133 13.4325 70.8048C13.2591 71.0964 13.0282 71.3228 12.7462 71.4921C12.465 71.6542 12.1137 71.7352 11.6924 71.7349C11.2282 71.7295 10.8225 71.6003 10.4834 71.3412C10.1372 71.0811 9.87394 70.7366 9.68809 70.2925C9.50224 69.8483 9.41013 69.3502 9.41174 68.7979C9.41662 68.1589 9.52648 67.6125 9.75391 67.1749C9.98134 66.7373 10.2762 66.4024 10.6377 66.1773C10.9992 65.9522 11.3905 65.8397 11.7967 65.8454L11.7898 66.9203C11.4151 66.9548 11.1194 67.0571 10.9009 67.2413C10.6824 67.4256 10.524 67.6536 10.4248 67.9323C10.3265 68.2038 10.2748 68.5101 10.2723 68.8296C10.2664 69.4177 10.4021 69.8557 10.6635 70.1564C10.9249 70.457 11.2403 70.6116 11.6106 70.6129C11.9443 70.617 12.2113 70.5113 12.4047 70.2949C12.598 70.0785 12.7525 69.7629 12.8539 69.3463L13.2855 67.7051C13.4027 67.2178 13.5659 66.8305 13.7822 66.5442C13.9986 66.2579 14.2492 66.0484 14.5332 65.923C14.8172 65.7975 15.13 65.7337 15.4565 65.7369C15.9065 65.7406 16.3121 65.8698 16.6664 66.1236C17.0206 66.3773 17.2973 66.7307 17.4958 67.1909C17.6951 67.644 17.7972 68.1797 17.7877 68.7964L17.8155 68.807Z" fill="#1F1F1F"/>
<path d="M18.8808 58.644C18.7358 59.3605 18.4472 59.9433 18.0212 60.4005C17.5953 60.8576 17.0427 61.1613 16.3768 61.3204C15.711 61.4795 14.9354 61.4654 14.0707 61.2878C13.1917 61.1085 12.4795 60.8113 11.919 60.4016C11.3585 59.992 10.9765 59.4877 10.7571 58.9014C10.5376 58.3151 10.5004 57.6637 10.6446 56.9543C10.7888 56.2449 11.0774 55.6621 11.5025 55.2121C11.9275 54.7621 12.4802 54.4585 13.1531 54.3002C13.8261 54.142 14.6017 54.1561 15.4807 54.3355C16.3526 54.5139 17.0585 54.8031 17.6199 55.2055C18.1741 55.6071 18.5569 56.1042 18.7764 56.6906C18.9958 57.2769 19.0267 57.9203 18.8817 58.6368L18.8808 58.644ZM17.9875 58.4629C18.0913 57.9667 18.0655 57.5202 17.9094 57.1305C17.7541 56.7337 17.4604 56.4001 17.022 56.1216C16.5836 55.843 15.9997 55.6268 15.2621 55.4792C14.5182 55.3236 13.883 55.2901 13.3636 55.3797C12.8442 55.4694 12.4361 55.6597 12.1313 55.9571C11.8264 56.2545 11.6257 56.6517 11.5291 57.1488C11.4261 57.6379 11.4599 58.0781 11.6215 58.4829C11.7839 58.8806 12.0839 59.2223 12.5286 59.5088C12.9732 59.7954 13.5644 60.0125 14.3083 60.1681C15.0458 60.3158 15.6667 60.3475 16.1789 60.257C16.6912 60.1664 17.093 59.9681 17.3915 59.6626C17.6901 59.3572 17.8837 58.9591 17.9866 58.4701L17.9875 58.4629Z" fill="#1F1F1F"/>
<path d="M19.9384 53.8079L12.2217 51.0691L13.9238 46.2602L14.7863 46.5756L13.4402 50.3665L15.9891 51.2718L17.1944 47.8636L18.0515 48.1638L16.8462 51.572L20.2935 52.797L19.9303 53.8142L19.9384 53.8079Z" fill="#1F1F1F"/>
<path d="M23.0149 45.8944L17.4488 39.2007L18.0444 38.1827L26.6059 39.7664L26.0653 40.6894L23.7211 40.2524L22.0256 43.1504L23.5537 44.9858L23.014 45.9016L23.0149 45.8944ZM21.3369 42.42L22.7479 40.0107L18.6313 39.2133L21.3369 42.42Z" fill="#1F1F1F"/>
<path d="M29.0929 36.783C28.6468 37.3467 28.1284 37.7273 27.545 37.9254C26.9616 38.1236 26.3418 38.1429 25.6802 37.9681C25.0185 37.7934 24.3428 37.4352 23.6539 36.8864C22.9587 36.3296 22.4557 35.7453 22.1386 35.1253C21.8215 34.5053 21.7004 33.8873 21.7679 33.2704C21.8435 32.6472 22.0973 32.0529 22.5505 31.49C22.8079 31.1651 23.1075 30.9107 23.4432 30.7188C23.7788 30.5269 24.1362 30.3958 24.5 30.3309C24.871 30.2669 25.227 30.2665 25.5814 30.3385C25.9368 30.4035 26.2548 30.5365 26.5355 30.7378L25.8338 31.6121C25.5613 31.4628 25.2739 31.377 24.9563 31.3603C24.6395 31.3364 24.3356 31.3867 24.0381 31.5033C23.7407 31.6199 23.4846 31.8141 23.27 32.0861C22.978 32.4577 22.8067 32.8513 22.7626 33.2748C22.7185 33.6983 22.8247 34.14 23.0822 34.5928C23.3388 35.0528 23.7546 35.5176 24.3439 35.9889C24.8014 36.3496 25.2263 36.6193 25.6205 36.7834C26.0218 36.9484 26.3897 37.0293 26.7251 37.0191C27.0605 37.0089 27.368 36.9299 27.6474 36.7821C27.9277 36.6271 28.1703 36.424 28.384 36.1591C28.5986 35.8872 28.7399 35.6208 28.8024 35.3449C28.865 35.069 28.8748 34.8085 28.8327 34.5563C28.7907 34.3041 28.7094 34.0761 28.5968 33.8662C28.4842 33.6563 28.345 33.4868 28.1942 33.3522L27.6496 32.8718L26.4073 34.4293L25.8045 33.9491L27.7307 31.5442L31.0283 34.183L30.5394 34.7997L29.5661 34.0202C29.6582 34.2785 29.7192 34.5548 29.7408 34.8554C29.7624 35.1561 29.7314 35.4721 29.627 35.7938C29.5226 36.1155 29.344 36.45 29.0768 36.7956L29.0929 36.783Z" fill="#1F1F1F"/>
<path d="M32.3689 32.892L26.5592 27.1282L27.2963 26.3817L33.106 32.1455L32.3689 32.892Z" fill="#1F1F1F"/>
<path d="M39.0015 27.2711C38.4118 27.7011 37.8089 27.9405 37.1847 27.9956C36.5606 28.0508 35.9464 27.9036 35.3477 27.5693C34.749 27.235 34.18 26.7153 33.6569 25.9976C33.1266 25.2791 32.7976 24.5778 32.6547 23.899C32.519 23.2211 32.5669 22.5872 32.7974 22.0046C33.035 21.4229 33.4384 20.9121 34.0201 20.4884C34.6027 20.0575 35.2056 19.8181 35.828 19.7773C36.4513 19.7294 37.0583 19.8757 37.6642 20.2108C38.27 20.546 38.8372 21.08 39.3667 21.8057C39.8898 22.5234 40.2268 23.2184 40.3634 23.8892C40.5 24.5599 40.4602 25.1875 40.2234 25.7621C39.9938 26.3375 39.5832 26.8474 38.9935 27.2774L39.0015 27.2711ZM38.4586 26.5365C38.8655 26.237 39.1469 25.8931 39.2966 25.497C39.4464 25.1008 39.4573 24.6515 39.3214 24.1553C39.1863 23.6519 38.8972 23.1007 38.455 22.4947C38.0064 21.8806 37.5594 21.4338 37.1147 21.1473C36.67 20.8607 36.2357 20.7281 35.8118 20.7494C35.3879 20.7706 34.9689 20.9306 34.563 21.223C34.1642 21.5162 33.8891 21.8681 33.7384 22.2714C33.5878 22.6747 33.5832 23.1321 33.7174 23.6426C33.8516 24.1532 34.147 24.7124 34.5955 25.3265C35.0377 25.9325 35.4857 26.3721 35.9241 26.6506C36.3625 26.9291 36.7976 27.0546 37.2224 27.0262C37.6472 26.9978 38.059 26.8369 38.4649 26.5446L38.4586 26.5365Z" fill="#1F1F1F"/>
<path d="M42.9936 24.368L39.2341 17.0939L40.1252 16.635L46.8863 20.3045L43.9618 14.6508L44.8921 14.1677L48.6516 21.4418L47.8221 21.8718L40.958 18.1534L43.9231 23.892L42.9928 24.3751L42.9936 24.368Z" fill="#1F1F1F"/>
<path d="M50.4132 20.7538L47.7112 13.0265L48.7207 12.6692L51.1164 19.5089L54.7658 18.229L55.0793 19.1175L50.4132 20.7538Z" fill="#1F1F1F"/>
<path d="M57.2102 18.6131L56.4092 15.2159L52.6151 11.2812L53.7295 11.0166L56.7087 14.1837L57.9247 10.0282L59.0464 9.76445L57.4254 14.983L58.2273 18.373L57.2102 18.6131Z" fill="#1F1F1F"/>
<path d="M67.6664 14.1028C67.4624 14.1072 67.2789 14.0631 67.1086 13.9698C66.9383 13.8764 66.8019 13.7436 66.6984 13.5784C66.595 13.4132 66.538 13.2246 66.5265 13.0196C66.5222 12.8156 66.5663 12.6319 66.6604 12.4544C66.7538 12.284 66.8794 12.1466 67.0445 12.043C67.2096 11.9395 67.391 11.8816 67.5949 11.8772C67.7988 11.8729 67.9832 11.9098 68.1607 12.004C68.331 12.0973 68.4683 12.223 68.5789 12.3891C68.6823 12.5543 68.7402 12.7358 68.7445 12.9398C68.7488 13.1439 68.7111 13.3355 68.6106 13.5051C68.5173 13.6755 68.3836 13.8192 68.2257 13.9236C68.0677 14.028 67.8792 14.0851 67.6744 14.0966L67.6664 14.1028Z" fill="#1F1F1F"/>
<circle cx="69.6706" cy="69.8285" r="69.0968" stroke="#1F1F1F" stroke-width="0.903226"/>
</g>
</svg>
