<svg width="1600" height="4" viewBox="0 0 1600 4" fill="none" xmlns="http://www.w3.org/2000/svg">
<path fill-rule="evenodd" clip-rule="evenodd" d="M3.64194 1.1018C4.71978 0.574299 5.90272 0 8.16306 0C10.4231 0 11.6084 0.574161 12.6892 1.10116L12.7023 1.10755C13.6662 1.57759 14.5325 2 16.3463 2C18.1575 2 19.0159 1.57888 19.9716 1.10993L19.9873 1.10223C21.0635 0.574256 22.2439 0 24.5093 0C26.7747 0 27.9552 0.574256 29.0313 1.10223L29.047 1.10993C30.0028 1.57887 30.8611 2 32.6724 2C34.4837 2 35.342 1.57887 36.2978 1.10992L36.3134 1.10223C37.3896 0.574256 38.5701 0 40.8354 0C43.1008 0 44.2813 0.574256 45.3574 1.10223L45.3731 1.10992C46.3289 1.57887 47.1872 2 48.9985 2C50.8098 2 51.6681 1.57887 52.6239 1.10992L52.6396 1.10223C53.7157 0.574256 54.8962 0 57.1616 0C59.4267 0 60.6095 0.574077 61.6869 1.10201L61.7038 1.11029C62.6611 1.57944 63.5193 2 65.3246 2C67.1299 2 67.9881 1.57944 68.9454 1.1103L68.9623 1.10201C70.0397 0.574077 71.2226 0 73.4877 0C75.7528 0 76.9356 0.574077 78.013 1.10201L78.0299 1.1103C78.9873 1.57944 79.8455 2 81.6507 2C83.456 2 84.3142 1.57944 85.2716 1.11029L85.2885 1.10201C86.3659 0.574077 87.5487 0 89.8138 0C92.0789 0 93.2617 0.574077 94.3391 1.10201L94.356 1.11029C95.3134 1.57944 96.1716 2 97.9769 2C99.7821 2 100.64 1.57944 101.598 1.1103L101.615 1.10201C102.692 0.574077 103.875 0 106.14 0C108.405 0 109.586 0.574256 110.662 1.10223L110.678 1.10993C111.633 1.57888 112.492 2 114.303 2C116.116 2 116.977 1.57813 117.934 1.10877L117.948 1.10201C119.025 0.574479 120.205 0 122.466 0C124.727 0 125.905 0.574638 126.98 1.10244L126.994 1.10938C127.949 1.5784 128.807 2 130.619 2C132.43 2 133.289 1.57888 134.244 1.10993L134.26 1.10223C135.336 0.574256 136.517 0 138.782 0C141.047 0 142.228 0.574256 143.304 1.10223L143.32 1.10991C144.276 1.57887 145.134 2 146.945 2C148.758 2 149.619 1.57813 150.577 1.10877L150.59 1.10201C151.667 0.574479 152.848 0 155.108 0C157.369 0 158.549 0.574479 159.626 1.10201L159.64 1.10877C160.598 1.57813 161.459 2 163.271 2C165.083 2 165.941 1.57887 166.897 1.10991L166.912 1.10223C167.988 0.574256 169.169 0 171.434 0C173.7 0 174.88 0.574256 175.956 1.10223L175.972 1.10992C176.928 1.57887 177.786 2 179.597 2C181.41 2 182.271 1.57813 183.229 1.10876L183.243 1.10201C184.319 0.574479 185.5 0 187.76 0C190.021 0 191.202 0.574479 192.278 1.10201L192.292 1.10876C193.25 1.57813 194.111 2 195.924 2C197.736 2 198.597 1.57813 199.555 1.10877L199.569 1.10201C200.645 0.574479 201.826 0 204.087 0C206.347 0 207.53 0.574299 208.608 1.1018L208.623 1.10914C209.582 1.5787 210.443 2 212.25 2C214.056 2 214.917 1.5787 215.877 1.10914L215.892 1.1018C216.969 0.574299 218.152 0 220.413 0C222.673 0 223.856 0.574299 224.934 1.1018L224.949 1.10912C225.908 1.57869 226.769 2 228.576 2C230.383 2 231.243 1.5787 232.203 1.10914L232.218 1.1018C233.296 0.574299 234.478 0 236.739 0C238.999 0 240.182 0.574299 241.26 1.1018L241.275 1.10914C242.234 1.5787 243.095 2 244.902 2C246.709 2 247.569 1.57869 248.529 1.10912L248.544 1.1018C249.622 0.574299 250.805 0 253.065 0C255.325 0 256.508 0.574299 257.586 1.1018L257.601 1.1091C258.56 1.57868 259.421 2 261.228 2C263.035 2 263.896 1.5787 264.855 1.10915L264.87 1.1018C265.948 0.574299 267.131 0 269.391 0C271.651 0 272.834 0.574299 273.912 1.1018L273.927 1.10915C274.887 1.5787 275.747 2 277.554 2C279.361 2 280.222 1.5787 281.181 1.10915L281.196 1.1018C282.274 0.574299 283.457 0 285.717 0C287.978 0 289.158 0.574478 290.235 1.10201L290.249 1.10873C291.206 1.57811 292.067 2 293.88 2C295.694 2 296.557 1.57785 297.518 1.10813L297.531 1.10159C298.61 0.57432 299.793 0 302.053 0C304.314 0 305.495 0.574478 306.571 1.10201L306.585 1.10877C307.543 1.57813 308.404 2 310.216 2C312.028 2 312.889 1.5786 313.848 1.10931L313.863 1.1018C314.942 0.574098 316.124 0 318.39 0C320.654 0 321.84 0.57392 322.919 1.10159L322.936 1.10966C323.896 1.57916 324.757 2 326.563 2C328.368 2 329.226 1.57945 330.183 1.11032L330.2 1.10201C331.278 0.574077 332.461 0 334.726 0C336.991 0 338.176 0.573919 339.255 1.10159L339.272 1.1097C340.232 1.57918 341.093 2 342.899 2C344.706 2 345.566 1.5787 346.526 1.10915L346.541 1.1018C347.619 0.574299 348.802 0 351.062 0C353.322 0 354.505 0.574299 355.583 1.1018L355.598 1.10912C356.557 1.57869 357.418 2 359.225 2C361.032 2 361.893 1.57868 362.852 1.1091L362.867 1.1018C363.945 0.574299 365.128 0 367.388 0C369.648 0 370.831 0.574299 371.909 1.1018L371.924 1.10915C372.884 1.5787 373.744 2 375.551 2C377.358 2 378.219 1.5787 379.178 1.10915L379.193 1.1018C380.271 0.574299 381.454 0 383.714 0C385.974 0 387.157 0.574299 388.235 1.1018L388.25 1.10915C389.21 1.5787 390.07 2 391.877 2C393.684 2 394.545 1.57869 395.504 1.10912L395.519 1.1018C396.597 0.574299 397.78 0 400.04 0C402.301 0 403.484 0.574299 404.561 1.1018L404.576 1.1091C405.536 1.57868 406.397 2 408.203 2C410.01 2 410.871 1.57869 411.83 1.10912L411.845 1.1018C412.923 0.574299 414.106 0 416.366 0C418.627 0 419.81 0.574299 420.888 1.1018L420.903 1.10915C421.862 1.5787 422.723 2 424.529 2C426.335 2 427.193 1.57943 428.15 1.11027L428.167 1.10201C429.245 0.574077 430.427 0 432.693 0C434.958 0 436.14 0.574077 437.218 1.10201L437.235 1.11032C438.192 1.57945 439.05 2 440.856 2C442.661 2 443.519 1.57944 444.476 1.11029L444.493 1.10201C445.571 0.574077 446.754 0 449.019 0C451.284 0 452.465 0.574256 453.541 1.10223L453.556 1.10994C454.512 1.57889 455.37 2 457.182 2C458.993 2 459.851 1.57887 460.807 1.10992L460.823 1.10223C461.899 0.574256 463.079 0 465.345 0C467.61 0 468.793 0.574077 469.87 1.10201L469.887 1.11028C470.844 1.57943 471.703 2 473.508 2C475.313 2 476.171 1.57943 477.129 1.11027L477.146 1.10201C478.223 0.574077 479.406 0 481.671 0C483.936 0 485.117 0.574256 486.193 1.10223L486.209 1.10992C487.164 1.57887 488.023 2 489.834 2C491.645 2 492.504 1.57886 493.459 1.1099L493.475 1.10223C494.551 0.574256 495.732 0 497.997 0C500.262 0 501.445 0.574077 502.522 1.10201L502.539 1.11028C503.497 1.57943 504.355 2 506.16 2C507.965 2 508.82 1.5797 509.775 1.11089L509.792 1.10244C510.867 0.574235 512.048 0 514.313 0C516.578 0 517.759 0.574256 518.835 1.10223L518.851 1.10994C519.807 1.57889 520.665 2 522.476 2C524.289 2 525.15 1.57815 526.107 1.10879L526.121 1.10201C527.198 0.574479 528.379 0 530.639 0C532.9 0 534.08 0.574479 535.157 1.10201L535.171 1.10875C536.128 1.57812 536.989 2 538.802 2C540.615 2 541.476 1.57812 542.434 1.10875L542.448 1.10201C543.524 0.574479 544.705 0 546.965 0C549.226 0 550.406 0.574478 551.483 1.10201L551.497 1.10879C552.455 1.57815 553.316 2 555.128 2C556.941 2 557.802 1.57809 558.76 1.10871L558.774 1.10201C559.85 0.574479 561.031 0 563.291 0C565.552 0 566.733 0.574479 567.809 1.10201L567.823 1.10879C568.781 1.57815 569.642 2 571.454 2C573.266 2 574.124 1.57886 575.08 1.1099L575.096 1.10223C576.172 0.574256 577.352 0 579.617 0C581.883 0 583.063 0.574255 584.14 1.10223L584.155 1.1099C585.111 1.57886 585.969 2 587.781 2C589.592 2 590.45 1.57886 591.406 1.1099L591.422 1.10223C592.498 0.574256 593.678 0 595.944 0C598.209 0 599.39 0.574256 600.466 1.10223L600.481 1.1099C601.437 1.57886 602.295 2 604.107 2C605.918 2 606.776 1.57889 607.732 1.10995L607.748 1.10223C608.824 0.574256 610.004 0 612.27 0C614.535 0 615.716 0.574255 616.792 1.10223L616.807 1.10994C617.763 1.57888 618.622 2 620.433 2C622.244 2 623.102 1.57886 624.058 1.1099L624.074 1.10223C625.15 0.574256 626.331 0 628.596 0C630.861 0 632.044 0.574077 633.121 1.10201L633.138 1.11028C634.095 1.57943 634.954 2 636.759 2C638.57 2 639.429 1.57886 640.384 1.1099L640.4 1.10223C641.476 0.574256 642.657 0 644.922 0C647.187 0 648.368 0.574255 649.444 1.10223L649.46 1.1099C650.415 1.57886 651.274 2 653.085 2C654.896 2 655.755 1.57889 656.71 1.10995L656.726 1.10223C657.802 0.574256 658.983 0 661.248 0C663.513 0 664.694 0.574256 665.77 1.10223L665.786 1.1099C666.742 1.57886 667.6 2 669.411 2C671.222 2 672.081 1.57886 673.037 1.1099L673.052 1.10223C674.128 0.574256 675.309 0 677.574 0C679.84 0 681.02 0.574255 682.096 1.10223L682.112 1.1099C683.068 1.57886 683.926 2 685.737 2C687.55 2 688.411 1.57815 689.369 1.10879L689.383 1.10201C690.459 0.574479 691.64 0 693.9 0C696.165 0 697.348 0.574077 698.426 1.10201L698.443 1.11028C699.4 1.57943 700.258 2 702.063 2C703.869 2 704.727 1.57943 705.684 1.11028L705.701 1.10201C706.779 0.574077 707.961 0 710.227 0C712.492 0 713.674 0.574077 714.752 1.10201L714.769 1.11028C715.726 1.57943 716.584 2 718.39 2C720.195 2 721.053 1.57943 722.01 1.11027L722.027 1.10201C723.105 0.574076 724.288 0 726.553 0C728.818 0 730.001 0.574077 731.078 1.10201L731.095 1.11028C732.052 1.57943 732.91 2 734.716 2C736.521 2 737.379 1.57943 738.337 1.11028L738.353 1.10201C739.431 0.574077 740.614 0 742.879 0C745.144 0 746.325 0.574256 747.401 1.10223L747.416 1.1099C748.372 1.57886 749.23 2 751.042 2C752.855 2 753.716 1.57812 754.673 1.10874L754.687 1.10201C755.764 0.574478 756.944 0 759.205 0C761.466 0 762.644 0.574638 763.719 1.10245L763.733 1.10939C764.687 1.57841 765.546 2 767.358 2C769.169 2 770.027 1.57886 770.983 1.1099L770.999 1.10223C772.075 0.574256 773.256 0 775.521 0C777.786 0 778.967 0.574255 780.043 1.10223L780.058 1.1099C781.014 1.57886 781.873 2 783.684 2C785.497 2 786.358 1.57815 787.315 1.10879L787.329 1.10201C788.406 0.574479 789.586 0 791.847 0C794.108 0 795.288 0.574479 796.365 1.10201L796.379 1.10879C797.336 1.57815 798.197 2 800.01 2C801.821 2 802.68 1.57889 803.635 1.10995L803.651 1.10223C804.727 0.574256 805.908 0 808.173 0C810.438 0 811.619 0.574255 812.695 1.10223L812.711 1.10994C813.667 1.57888 814.525 2 816.336 2C818.148 2 819.006 1.57886 819.962 1.1099L819.977 1.10223C821.053 0.574256 822.234 0 824.499 0C826.765 0 827.945 0.574256 829.021 1.10223L829.037 1.10995C829.993 1.57889 830.851 2 832.662 2C834.474 2 835.332 1.57886 836.288 1.1099L836.303 1.10223C837.38 0.574256 838.56 0 840.825 0C843.091 0 844.271 0.574256 845.347 1.10223L845.363 1.1099C846.319 1.57886 847.177 2 848.988 2C850.8 2 851.658 1.57886 852.614 1.1099L852.63 1.10223C853.706 0.574255 854.886 0 857.152 0C859.417 0 860.599 0.574077 861.677 1.10201L861.694 1.11028C862.651 1.57943 863.509 2 865.315 2C867.12 2 867.978 1.57948 868.935 1.11036L868.952 1.10201C870.03 0.574077 871.213 0 873.478 0C875.743 0 876.926 0.574077 878.003 1.10201L878.02 1.11028C878.977 1.57943 879.835 2 881.641 2C883.446 2 884.304 1.57945 885.261 1.11031L885.278 1.10201C886.356 0.574076 887.539 0 889.804 0C892.069 0 893.252 0.574077 894.329 1.10201L894.346 1.11028C895.303 1.57943 896.161 2 897.967 2C899.772 2 900.63 1.57943 901.588 1.11028L901.605 1.10201C902.682 0.574077 903.865 0 906.13 0C908.395 0 909.576 0.574256 910.652 1.10223L910.667 1.1099C911.623 1.57886 912.482 2 914.293 2C916.106 2 916.967 1.57812 917.924 1.10874L917.938 1.10201C919.015 0.574478 920.195 0 922.456 0C924.717 0 925.895 0.574638 926.97 1.10245L926.984 1.10939C927.938 1.57841 928.797 2 930.609 2C932.42 2 933.279 1.57886 934.234 1.1099L934.25 1.10223C935.326 0.574256 936.507 0 938.772 0C941.037 0 942.218 0.574255 943.294 1.10223L943.31 1.1099C944.266 1.57886 945.124 2 946.935 2C948.748 2 949.609 1.57812 950.567 1.10875L950.58 1.10201C951.657 0.574479 952.838 0 955.098 0C957.359 0 958.539 0.574479 959.616 1.10201L959.63 1.10879C960.588 1.57815 961.448 2 963.261 2C965.073 2 965.931 1.57886 966.887 1.1099L966.902 1.10223C967.978 0.574256 969.159 0 971.424 0C973.69 0 974.87 0.574256 975.946 1.10223L975.962 1.10995C976.918 1.57889 977.776 2 979.587 2C981.4 2 982.261 1.57815 983.219 1.10879L983.233 1.10201C984.309 0.574478 985.49 0 987.75 0C990.011 0 991.192 0.574479 992.268 1.10201L992.282 1.10875C993.24 1.57812 994.101 2 995.913 2C997.726 2 998.587 1.57812 999.545 1.10875L999.559 1.10201C1000.64 0.574479 1001.82 0 1004.08 0C1006.34 0 1007.52 0.574299 1008.6 1.1018L1008.61 1.10908C1009.57 1.57866 1010.43 2 1012.24 2C1014.05 2 1014.91 1.57869 1015.87 1.10912L1015.88 1.1018C1016.96 0.574298 1018.14 0 1020.4 0C1022.66 0 1023.85 0.574299 1024.92 1.1018L1024.94 1.10922C1025.9 1.57874 1026.76 2 1028.57 2C1030.37 2 1031.23 1.57869 1032.19 1.10912L1032.21 1.1018C1033.29 0.574299 1034.47 0 1036.73 0C1038.99 0 1040.17 0.574299 1041.25 1.1018L1041.26 1.10912C1042.22 1.57869 1043.09 2 1044.89 2C1046.7 2 1047.56 1.57864 1048.52 1.10904L1048.53 1.1018C1049.61 0.574299 1050.79 0 1053.05 0C1055.32 0 1056.5 0.574299 1057.58 1.1018L1057.59 1.10912C1058.55 1.57869 1059.41 2 1061.22 2C1063.02 2 1063.89 1.57869 1064.84 1.10912L1064.86 1.1018C1065.94 0.574297 1067.12 0 1069.38 0C1071.64 0 1072.82 0.574299 1073.9 1.1018L1073.92 1.10922C1074.88 1.57874 1075.74 2 1077.54 2C1079.35 2 1080.21 1.57869 1081.17 1.10912L1081.19 1.1018C1082.26 0.574299 1083.45 0 1085.71 0C1087.97 0 1089.15 0.574479 1090.22 1.10201L1090.24 1.10884C1091.2 1.57818 1092.06 2 1093.87 2C1095.68 2 1096.55 1.57786 1097.51 1.10816L1097.52 1.10159C1098.6 0.57432 1099.78 0 1102.04 0C1104.3 0 1105.48 0.574479 1106.56 1.10201L1106.57 1.10866C1107.53 1.57807 1108.39 2 1110.21 2C1112.02 2 1112.88 1.57863 1113.84 1.10935L1113.85 1.1018C1114.93 0.574098 1116.11 0 1118.38 0C1120.64 0 1121.83 0.57392 1122.91 1.10159L1122.93 1.10973C1123.89 1.5792 1124.75 2 1126.55 2C1128.36 2 1129.22 1.5794 1130.17 1.11023L1130.19 1.10201C1131.27 0.574077 1132.45 0 1134.72 0C1136.98 0 1138.17 0.57392 1139.25 1.10159L1139.26 1.10973C1140.22 1.5792 1141.08 2 1142.89 2C1144.7 2 1145.56 1.57869 1146.52 1.10912L1146.53 1.1018C1147.61 0.574299 1148.79 0 1151.05 0C1153.31 0 1154.5 0.574297 1155.57 1.1018L1155.59 1.10912C1156.55 1.57869 1157.41 2 1159.21 2C1161.02 2 1161.88 1.57869 1162.84 1.10912L1162.86 1.1018C1163.93 0.574299 1165.12 0 1167.38 0C1169.64 0 1170.82 0.574299 1171.9 1.1018L1171.91 1.10912C1172.87 1.57869 1173.73 2 1175.54 2C1177.35 2 1178.21 1.57874 1179.17 1.10922L1179.18 1.1018C1180.26 0.574299 1181.44 0 1183.7 0C1185.96 0 1187.15 0.574299 1188.23 1.1018L1188.24 1.10912C1189.2 1.57869 1190.06 2 1191.87 2C1193.67 2 1194.53 1.57869 1195.49 1.10912L1195.51 1.1018C1196.59 0.574299 1197.77 0 1200.03 0C1202.29 0 1203.47 0.574299 1204.55 1.1018L1204.57 1.10904C1205.53 1.57864 1206.39 2 1208.19 2C1210 2 1210.86 1.57869 1211.82 1.10912L1211.84 1.1018C1212.91 0.574299 1214.1 0 1216.36 0C1218.62 0 1219.8 0.574297 1220.88 1.1018L1220.89 1.10902C1221.85 1.57863 1222.71 2 1224.52 2C1226.32 2 1227.18 1.57945 1228.14 1.11032L1228.16 1.10201C1229.23 0.574077 1230.42 0 1232.68 0C1234.95 0 1236.13 0.574077 1237.21 1.10201L1237.22 1.11023C1238.18 1.5794 1239.04 2 1240.85 2C1242.65 2 1243.51 1.5794 1244.47 1.11023L1244.48 1.10201C1245.56 0.574077 1246.74 0 1249.01 0C1251.27 0 1252.45 0.574256 1253.53 1.10223L1253.55 1.10986C1254.5 1.57883 1255.36 2 1257.17 2C1258.98 2 1259.84 1.57888 1260.8 1.10994L1260.81 1.10223C1261.89 0.574256 1263.07 0 1265.33 0C1267.6 0 1268.78 0.574077 1269.86 1.10201L1269.88 1.11032C1270.83 1.57945 1271.69 2 1273.5 2C1275.3 2 1276.16 1.57945 1277.12 1.11032L1277.14 1.10201C1278.21 0.574077 1279.4 0 1281.66 0C1283.93 0 1285.11 0.574256 1286.18 1.10223L1286.2 1.10994C1287.15 1.57888 1288.01 2 1289.82 2C1291.64 2 1292.49 1.57888 1293.45 1.10994L1293.46 1.10222C1294.54 0.574255 1295.72 0 1297.99 0C1300.25 0 1301.43 0.574077 1302.51 1.10201L1302.53 1.11032C1303.49 1.57945 1304.34 2 1306.15 2C1307.95 2 1308.81 1.57977 1309.76 1.111L1309.78 1.10245C1310.86 0.574235 1312.04 0 1314.3 0C1316.57 0 1317.75 0.574256 1318.83 1.10223L1318.84 1.10986C1319.8 1.57883 1320.65 2 1322.47 2C1324.28 2 1325.14 1.57818 1326.1 1.10884L1326.11 1.10201C1327.19 0.574479 1328.37 0 1330.63 0C1332.89 0 1334.07 0.574479 1335.15 1.10201L1335.16 1.10875C1336.12 1.57812 1336.98 2 1338.79 2C1340.61 2 1341.47 1.57807 1342.42 1.10866L1342.44 1.10201C1343.51 0.574479 1344.69 0 1346.96 0C1349.22 0 1350.4 0.574477 1351.47 1.10201L1351.49 1.10874C1352.44 1.57812 1353.31 2 1355.12 2C1356.93 2 1357.79 1.57812 1358.75 1.10875L1358.76 1.10201C1359.84 0.574479 1361.02 0 1363.28 0C1365.54 0 1366.72 0.574479 1367.8 1.10201L1367.81 1.10875C1368.77 1.57812 1369.63 2 1371.44 2C1373.26 2 1374.11 1.57888 1375.07 1.10994L1375.09 1.10223C1376.16 0.574256 1377.34 0 1379.61 0C1381.87 0 1383.05 0.574256 1384.13 1.10223L1384.14 1.10986C1385.1 1.57883 1385.96 2 1387.77 2C1389.58 2 1390.44 1.57894 1391.4 1.11003L1391.41 1.10223C1392.49 0.574256 1393.67 0 1395.93 0C1398.2 0 1399.38 0.574256 1400.46 1.10223L1400.47 1.10994C1401.43 1.57888 1402.29 2 1404.1 2C1405.91 2 1406.77 1.57883 1407.72 1.10986L1407.74 1.10223C1408.81 0.574256 1409.99 0 1412.26 0C1414.53 0 1415.71 0.574256 1416.78 1.10223L1416.8 1.10986C1417.75 1.57883 1418.61 2 1420.42 2C1422.23 2 1423.09 1.57888 1424.05 1.10994L1424.06 1.10222C1425.14 0.574255 1426.32 0 1428.59 0C1430.85 0 1432.03 0.574077 1433.11 1.10201L1433.13 1.11032C1434.09 1.57945 1434.94 2 1436.75 2C1438.56 2 1439.42 1.57894 1440.37 1.11003L1440.39 1.10223C1441.47 0.574256 1442.65 0 1444.91 0C1447.18 0 1448.36 0.574256 1449.43 1.10223L1449.45 1.10994C1450.41 1.57888 1451.26 2 1453.08 2C1454.89 2 1455.74 1.57883 1456.7 1.10986L1456.72 1.10223C1457.79 0.574256 1458.97 0 1461.24 0C1463.5 0 1464.68 0.574256 1465.76 1.10223L1465.78 1.10986C1466.73 1.57883 1467.59 2 1469.4 2C1471.21 2 1472.07 1.57888 1473.03 1.10994L1473.04 1.10223C1474.12 0.574256 1475.3 0 1477.56 0C1479.83 0 1481.01 0.574256 1482.09 1.10223L1482.1 1.10986C1483.06 1.57883 1483.92 2 1485.73 2C1487.54 2 1488.4 1.57812 1489.36 1.10874L1489.37 1.10201C1490.45 0.574477 1491.63 0 1493.89 0C1496.16 0 1497.34 0.574077 1498.42 1.10201L1498.43 1.11023C1499.39 1.5794 1500.25 2 1502.05 2C1503.86 2 1504.72 1.57951 1505.67 1.11041L1505.69 1.10201C1506.77 0.574077 1507.95 0 1510.22 0C1512.48 0 1513.66 0.574077 1514.74 1.10201L1514.76 1.11041C1515.72 1.57951 1516.57 2 1518.38 2C1520.18 2 1521.04 1.5794 1522 1.11023L1522.02 1.10201C1523.09 0.574077 1524.28 0 1526.54 0C1528.81 0 1529.99 0.574077 1531.07 1.10201L1531.08 1.11032C1532.04 1.57945 1532.9 2 1534.71 2C1536.51 2 1537.37 1.57945 1538.33 1.11032L1538.34 1.10201C1539.42 0.574077 1540.6 0 1542.87 0C1545.13 0 1546.31 0.574256 1547.39 1.10223L1547.41 1.10994C1548.36 1.57888 1549.22 2 1551.03 2C1552.84 2 1553.71 1.57812 1554.66 1.10874L1554.68 1.10201C1555.75 0.574477 1556.93 0 1559.19 0C1561.46 0 1562.63 0.574638 1563.71 1.10245L1563.72 1.10944C1564.68 1.57843 1565.54 2 1567.35 2C1569.16 2 1570.02 1.57883 1570.97 1.10986L1570.99 1.10223C1572.07 0.574256 1573.25 0 1575.51 0C1577.78 0 1578.96 0.574256 1580.03 1.10223L1580.05 1.10994C1581 1.57888 1581.86 2 1583.67 2C1585.49 2 1586.35 1.57812 1587.31 1.10875L1587.32 1.10201C1588.4 0.574479 1589.58 0 1591.84 0C1594.1 0 1595.28 0.574479 1596.35 1.10201L1596.37 1.10875C1597.33 1.57812 1598.19 2 1600 2V4C1597.73 4 1596.55 3.42592 1595.47 2.89799L1595.46 2.88968C1594.5 2.42055 1593.64 2 1591.84 2C1590.03 2 1589.17 2.42055 1588.22 2.88968L1588.2 2.89799C1587.12 3.42592 1585.94 4 1583.67 4C1581.41 4 1580.23 3.42574 1579.15 2.89777L1579.14 2.89006C1578.18 2.42112 1577.32 2 1575.51 2C1573.7 2 1572.84 2.42117 1571.89 2.89014L1571.87 2.89777C1570.79 3.42574 1569.61 4 1567.35 4C1565.08 4 1563.9 3.42576 1562.83 2.89755L1562.81 2.88917C1561.86 2.42034 1561 2 1559.19 2C1557.39 2 1556.53 2.42055 1555.57 2.88969L1555.56 2.89799C1554.48 3.42592 1553.3 4 1551.03 4C1548.77 4 1547.59 3.42574 1546.51 2.89777L1546.49 2.89006C1545.54 2.42112 1544.68 2 1542.87 2C1541.06 2 1540.2 2.42188 1539.24 2.89125L1539.22 2.89799C1538.15 3.42552 1536.97 4 1534.71 4C1532.45 4 1531.26 3.42552 1530.19 2.89799L1530.17 2.89125C1529.22 2.42188 1528.36 2 1526.54 2C1524.73 2 1523.87 2.42182 1522.91 2.89116L1522.9 2.89799C1521.82 3.42552 1520.64 4 1518.38 4C1516.12 4 1514.94 3.42552 1513.86 2.89799L1513.85 2.89125C1512.89 2.42188 1512.03 2 1510.22 2C1508.4 2 1507.54 2.42188 1506.59 2.89125L1506.57 2.89799C1505.49 3.42552 1504.31 4 1502.05 4C1499.79 4 1498.61 3.42552 1497.54 2.89799L1497.52 2.89116C1496.56 2.42182 1495.7 2 1493.89 2C1492.09 2 1491.23 2.42055 1490.27 2.88969L1490.25 2.89799C1489.18 3.42592 1487.99 4 1485.73 4C1483.46 4 1482.28 3.42574 1481.21 2.89777L1481.19 2.89014C1480.23 2.42117 1479.38 2 1477.56 2C1475.75 2 1474.89 2.42112 1473.94 2.89006L1473.92 2.89777C1472.85 3.42574 1471.67 4 1469.4 4C1467.14 4 1465.96 3.42574 1464.88 2.89777L1464.86 2.88997C1463.91 2.42106 1463.05 2 1461.24 2C1459.43 2 1458.57 2.42117 1457.61 2.89014L1457.6 2.89777C1456.52 3.42574 1455.34 4 1453.08 4C1450.81 4 1449.63 3.42574 1448.55 2.89777L1448.54 2.89006C1447.58 2.42112 1446.72 2 1444.91 2C1443.1 2 1442.24 2.42117 1441.29 2.89014L1441.27 2.89777C1440.19 3.42574 1439.01 4 1436.75 4C1434.49 4 1433.31 3.42552 1432.23 2.89799L1432.22 2.89125C1431.26 2.42188 1430.4 2 1428.59 2C1426.77 2 1425.92 2.42122 1424.96 2.89024L1424.94 2.89778C1423.87 3.42575 1422.69 4 1420.42 4C1418.16 4 1416.98 3.42574 1415.9 2.89777L1415.89 2.88997C1414.93 2.42106 1414.07 2 1412.26 2C1410.45 2 1409.59 2.42117 1408.63 2.89014L1408.62 2.89777C1407.54 3.42574 1406.36 4 1404.1 4C1401.83 4 1400.65 3.42574 1399.57 2.89777L1399.56 2.89006C1398.6 2.42112 1397.74 2 1395.93 2C1394.12 2 1393.26 2.42117 1392.31 2.89014L1392.29 2.89777C1391.22 3.42574 1390.04 4 1387.77 4C1385.51 4 1384.32 3.42574 1383.25 2.89777L1383.23 2.89014C1382.28 2.42117 1381.42 2 1379.61 2C1377.8 2 1376.94 2.42112 1375.98 2.89006L1375.97 2.89777C1374.89 3.42574 1373.71 4 1371.44 4C1369.18 4 1368 3.42592 1366.92 2.89799L1366.9 2.88968C1365.94 2.42055 1365.09 2 1363.28 2C1361.48 2 1360.62 2.42055 1359.66 2.88968L1359.64 2.89799C1358.57 3.42592 1357.38 4 1355.12 4C1352.85 4 1351.67 3.42592 1350.59 2.89799L1350.58 2.88969C1349.62 2.42055 1348.76 2 1346.96 2C1345.15 2 1344.29 2.4206 1343.33 2.88977L1343.32 2.89799C1342.24 3.42592 1341.06 4 1338.79 4C1336.53 4 1335.34 3.42592 1334.27 2.89799L1334.25 2.88968C1333.29 2.42055 1332.43 2 1330.63 2C1328.82 2 1327.97 2.4206 1327.01 2.88977L1326.99 2.89799C1325.91 3.42592 1324.73 4 1322.47 4C1320.2 4 1319.02 3.42574 1317.94 2.89777L1317.93 2.88997C1316.97 2.42106 1316.11 2 1314.3 2C1312.49 2 1311.63 2.42157 1310.68 2.89056L1310.66 2.89755C1309.59 3.42536 1308.41 4 1306.15 4C1303.89 4 1302.71 3.42552 1301.63 2.89799L1301.62 2.89125C1300.66 2.42188 1299.8 2 1297.99 2C1296.18 2 1295.32 2.42112 1294.36 2.89007L1294.35 2.89778C1293.27 3.42575 1292.09 4 1289.82 4C1287.56 4 1286.38 3.42574 1285.3 2.89777L1285.29 2.89006C1284.33 2.42112 1283.47 2 1281.66 2C1279.85 2 1278.99 2.42188 1278.03 2.89125L1278.02 2.89799C1276.94 3.42552 1275.76 4 1273.5 4C1271.24 4 1270.06 3.42552 1268.98 2.89799L1268.97 2.89125C1268.01 2.42188 1267.15 2 1265.33 2C1263.52 2 1262.67 2.42112 1261.71 2.89006L1261.69 2.89777C1260.62 3.42574 1259.44 4 1257.17 4C1254.91 4 1253.73 3.42574 1252.65 2.89777L1252.63 2.89014C1251.68 2.42117 1250.82 2 1249.01 2C1247.2 2 1246.33 2.42193 1245.38 2.89134L1245.36 2.89799C1244.29 3.42552 1243.11 4 1240.85 4C1238.58 4 1237.4 3.42552 1236.33 2.89799L1236.31 2.89116C1235.36 2.42182 1234.5 2 1232.68 2C1230.87 2 1230.01 2.42188 1229.05 2.89125L1229.04 2.89799C1227.96 3.42552 1226.78 4 1224.52 4C1222.26 4 1221.08 3.4257 1220 2.8982L1219.98 2.89088C1219.02 2.42131 1218.16 2 1216.36 2C1214.55 2 1213.69 2.42131 1212.73 2.89088L1212.71 2.8982C1211.64 3.4257 1210.45 4 1208.19 4C1205.93 4 1204.75 3.4257 1203.67 2.8982L1203.66 2.89078C1202.7 2.42126 1201.84 2 1200.03 2C1198.22 2 1197.36 2.42131 1196.4 2.89088L1196.39 2.8982C1195.31 3.4257 1194.13 4 1191.87 4C1189.61 4 1188.42 3.4257 1187.35 2.8982L1187.33 2.89088C1186.37 2.42131 1185.51 2 1183.7 2C1181.9 2 1181.04 2.42136 1180.08 2.89096L1180.06 2.8982C1178.98 3.4257 1177.8 4 1175.54 4C1173.28 4 1172.1 3.4257 1171.02 2.8982L1171.01 2.89088C1170.05 2.42131 1169.18 2 1167.38 2C1165.57 2 1164.71 2.42131 1163.75 2.89088L1163.74 2.8982C1162.66 3.4257 1161.48 4 1159.21 4C1156.95 4 1155.77 3.4257 1154.69 2.8982L1154.68 2.89088C1153.72 2.42131 1152.86 2 1151.05 2C1149.25 2 1148.38 2.42131 1147.42 2.89088L1147.41 2.8982C1146.33 3.4257 1145.15 4 1142.89 4C1140.63 4 1139.45 3.42568 1138.37 2.89841L1138.35 2.89184C1137.39 2.42214 1136.53 2 1134.72 2C1132.9 2 1132.04 2.42182 1131.08 2.89116L1131.07 2.89799C1129.99 3.42552 1128.81 4 1126.55 4C1124.29 4 1123.11 3.42568 1122.03 2.89841L1122.02 2.89184C1121.06 2.42214 1120.19 2 1118.38 2C1116.57 2 1115.71 2.42142 1114.75 2.89074L1114.73 2.8982C1113.65 3.4259 1112.47 4 1110.21 4C1107.94 4 1106.76 3.42592 1105.68 2.89799L1105.66 2.88977C1104.71 2.4206 1103.85 2 1102.04 2C1100.24 2 1099.38 2.4208 1098.42 2.89027L1098.4 2.89841C1097.32 3.42608 1096.14 4 1093.87 4C1091.61 4 1090.42 3.42592 1089.34 2.89799L1089.33 2.88977C1088.37 2.4206 1087.51 2 1085.71 2C1083.9 2 1083.04 2.42131 1082.08 2.89088L1082.07 2.8982C1080.99 3.4257 1079.8 4 1077.54 4C1075.28 4 1074.1 3.4257 1073.02 2.8982L1073.01 2.89096C1072.05 2.42136 1071.19 2 1069.38 2C1067.57 2 1066.71 2.42126 1065.75 2.8908L1065.74 2.8982C1064.66 3.4257 1063.48 4 1061.22 4C1058.96 4 1057.77 3.4257 1056.7 2.8982L1056.68 2.89088C1055.72 2.42131 1054.86 2 1053.05 2C1051.25 2 1050.39 2.42126 1049.43 2.89078L1049.41 2.8982C1048.34 3.4257 1047.15 4 1044.89 4C1042.63 4 1041.45 3.4257 1040.37 2.8982L1040.36 2.89088C1039.4 2.42131 1038.54 2 1036.73 2C1034.92 2 1034.06 2.42131 1033.1 2.89088L1033.09 2.8982C1032.01 3.4257 1030.83 4 1028.57 4C1026.31 4 1025.12 3.4257 1024.04 2.8982L1024.03 2.89092C1023.07 2.42134 1022.21 2 1020.4 2C1018.6 2 1017.74 2.42131 1016.78 2.89088L1016.76 2.8982C1015.68 3.4257 1014.5 4 1012.24 4C1009.98 4 1008.8 3.4257 1007.72 2.8982L1007.7 2.89083C1006.74 2.42128 1005.88 2 1004.08 2C1002.27 2 1001.41 2.42057 1000.46 2.88972L1000.44 2.89799C999.361 3.42592 998.179 4 995.913 4C993.648 4 992.466 3.42592 991.388 2.89799L991.371 2.88964C990.414 2.42052 989.556 2 987.75 2C985.945 2 985.087 2.42055 984.13 2.88969L984.113 2.89799C983.035 3.42592 981.852 4 979.587 4C977.322 4 976.141 3.42574 975.065 2.89777L975.05 2.89005C974.094 2.42111 973.236 2 971.424 2C969.613 2 968.755 2.42114 967.799 2.8901L967.783 2.89777C966.707 3.42574 965.527 4 963.261 4C960.996 4 959.813 3.42592 958.736 2.89799L958.719 2.88972C957.762 2.42057 956.903 2 955.098 2C953.293 2 952.435 2.42057 951.477 2.88972L951.46 2.89799C950.383 3.42592 949.2 4 946.935 4C944.67 4 943.489 3.42574 942.413 2.89777L942.397 2.89002C941.442 2.42109 940.583 2 938.772 2C936.961 2 936.102 2.42114 935.147 2.8901L935.131 2.89777C934.055 3.42574 932.874 4 930.609 4C928.344 4 927.163 3.42576 926.088 2.89755L926.071 2.88913C925.116 2.42031 924.261 2 922.456 2C920.651 2 919.793 2.42055 918.835 2.88969L918.818 2.89799C917.741 3.42592 916.558 4 914.293 4C912.028 4 910.847 3.42574 909.771 2.89777L909.755 2.8901C908.799 2.42114 907.941 2 906.13 2C904.317 2 903.456 2.42191 902.498 2.89129L902.485 2.89799C901.408 3.42552 900.227 4 897.967 4C895.706 4 894.526 3.42552 893.449 2.89799L893.435 2.89121C892.477 2.42185 891.617 2 889.804 2C887.991 2 887.13 2.42188 886.172 2.89126L886.158 2.89799C885.082 3.42552 883.901 4 881.641 4C879.38 4 878.199 3.42552 877.123 2.89799L877.109 2.89125C876.151 2.42188 875.29 2 873.478 2C871.665 2 870.804 2.42188 869.846 2.89125L869.832 2.89799C868.756 3.42552 867.575 4 865.315 4C863.054 4 861.873 3.42552 860.797 2.89799L860.783 2.89121C859.825 2.42185 858.964 2 857.152 2C855.34 2 854.482 2.42114 853.526 2.8901L853.51 2.89777C852.434 3.42574 851.254 4 848.988 4C846.723 4 845.543 3.42574 844.466 2.89777L844.451 2.8901C843.495 2.42114 842.637 2 840.825 2C839.014 2 838.156 2.42114 837.2 2.8901L837.184 2.89777C836.108 3.42574 834.928 4 832.662 4C830.397 4 829.216 3.42574 828.14 2.89777L828.125 2.89005C827.169 2.42111 826.311 2 824.499 2C822.688 2 821.83 2.42114 820.874 2.8901L820.858 2.89777C819.782 3.42574 818.602 4 816.336 4C814.071 4 812.89 3.42574 811.814 2.89777L811.799 2.8901C810.843 2.42114 809.984 2 808.173 2C806.362 2 805.504 2.42111 804.548 2.89005L804.532 2.89777C803.456 3.42574 802.275 4 800.01 4C797.745 4 796.562 3.42592 795.485 2.89799L795.468 2.88968C794.51 2.42054 793.652 2 791.847 2C790.042 2 789.184 2.42057 788.226 2.88972L788.209 2.89799C787.132 3.42592 785.949 4 783.684 4C781.419 4 780.238 3.42574 779.162 2.89777L779.146 2.8901C778.191 2.42114 777.332 2 775.521 2C773.71 2 772.851 2.42114 771.895 2.8901L771.88 2.89777C770.804 3.42574 769.623 4 767.358 4C765.092 4 763.912 3.42576 762.837 2.89755L762.819 2.88908C761.865 2.42029 761.01 2 759.205 2C757.4 2 756.541 2.42057 755.584 2.88973L755.567 2.89799C754.49 3.42592 753.307 4 751.042 4C748.776 4 747.596 3.42574 746.52 2.89777L746.504 2.89005C745.548 2.42111 744.69 2 742.879 2C741.066 2 740.205 2.42185 739.247 2.89121L739.233 2.89799C738.157 3.42552 736.976 4 734.716 4C732.455 4 731.274 3.42552 730.198 2.89799L730.184 2.89125C729.226 2.42188 728.365 2 726.553 2C724.74 2 723.879 2.42185 722.921 2.89121L722.907 2.89799C721.831 3.42552 720.65 4 718.39 4C716.129 4 714.948 3.42552 713.872 2.89799L713.858 2.89121C712.9 2.42185 712.039 2 710.227 2C708.414 2 707.553 2.42191 706.595 2.89129L706.581 2.89799C705.505 3.42552 704.324 4 702.063 4C699.803 4 698.622 3.42552 697.546 2.89799L697.532 2.89121C696.574 2.42185 695.713 2 693.9 2C692.095 2 691.237 2.42057 690.28 2.88972L690.263 2.89799C689.185 3.42592 688.002 4 685.737 4C683.472 4 682.292 3.42574 681.215 2.89777L681.2 2.8901C680.244 2.42114 679.386 2 677.574 2C675.763 2 674.905 2.42114 673.949 2.8901L673.933 2.89777C672.857 3.42574 671.677 4 669.411 4C667.146 4 665.965 3.42574 664.889 2.89777L664.874 2.8901C663.918 2.42114 663.059 2 661.248 2C659.437 2 658.579 2.42111 657.623 2.89005L657.607 2.89777C656.531 3.42574 655.35 4 653.085 4C650.82 4 649.639 3.42574 648.563 2.89777L648.547 2.89006C647.592 2.42112 646.733 2 644.922 2C643.111 2 642.252 2.42114 641.297 2.8901L641.281 2.89777C640.205 3.42574 639.024 4 636.759 4C634.498 4 633.318 3.42552 632.241 2.89799L632.227 2.89129C631.27 2.42191 630.409 2 628.596 2C626.785 2 625.926 2.42114 624.97 2.8901L624.955 2.89777C623.879 3.42574 622.698 4 620.433 4C618.167 4 616.987 3.42574 615.911 2.89777L615.895 2.8901C614.939 2.42114 614.081 2 612.27 2C610.458 2 609.6 2.42111 608.644 2.89005L608.629 2.89777C607.553 3.42574 606.372 4 604.107 4C601.841 4 600.661 3.42574 599.585 2.89777L599.569 2.8901C598.613 2.42114 597.755 2 595.944 2C594.132 2 593.274 2.42114 592.318 2.8901L592.303 2.89777C591.226 3.42574 590.046 4 587.781 4C585.515 4 584.335 3.42574 583.259 2.89777L583.243 2.8901C582.287 2.42114 581.429 2 579.617 2C577.806 2 576.948 2.42114 575.992 2.8901L575.976 2.89777C574.9 3.42574 573.72 4 571.454 4C569.189 4 568.007 3.42592 566.929 2.89799L566.912 2.88972C565.955 2.42057 565.097 2 563.291 2C561.486 2 560.628 2.42057 559.671 2.88972L559.654 2.89799C558.576 3.42592 557.393 4 555.128 4C552.863 4 551.68 3.42592 550.603 2.89799L550.586 2.88969C549.629 2.42055 548.771 2 546.965 2C545.16 2 544.302 2.42052 543.345 2.88964L543.328 2.89799C542.25 3.42592 541.067 4 538.802 4C536.537 4 535.354 3.42592 534.277 2.89799L534.26 2.88972C533.303 2.42057 532.444 2 530.639 2C528.834 2 527.976 2.42057 527.018 2.88972L527.001 2.89799C525.924 3.42592 524.741 4 522.476 4C520.211 4 519.03 3.42574 517.954 2.89777L517.938 2.89001C516.983 2.42109 516.124 2 514.313 2C512.501 2 511.643 2.42161 510.688 2.89063L510.674 2.89756C509.599 3.42536 508.421 4 506.16 4C503.899 4 502.719 3.42552 501.642 2.89799L501.629 2.89125C500.671 2.42188 499.81 2 497.997 2C496.186 2 495.327 2.42112 494.372 2.89006L494.356 2.89777C493.28 3.42574 492.099 4 489.834 4C487.569 4 486.388 3.42574 485.312 2.89777L485.296 2.89008C484.34 2.42113 483.482 2 481.671 2C479.858 2 478.997 2.42187 478.039 2.89123L478.026 2.89799C476.949 3.42552 475.768 4 473.508 4C471.247 4 470.067 3.42552 468.99 2.89799L468.976 2.89123C468.018 2.42187 467.158 2 465.345 2C463.533 2 462.675 2.42112 461.719 2.89006L461.704 2.89777C460.628 3.42574 459.447 4 457.182 4C454.916 4 453.736 3.42574 452.66 2.89777L452.644 2.89008C451.688 2.42113 450.83 2 449.019 2C447.206 2 446.345 2.42187 445.387 2.89123L445.373 2.89799C444.297 3.42552 443.116 4 440.856 4C438.595 4 437.414 3.42552 436.338 2.89799L436.324 2.89123C435.366 2.42187 434.505 2 432.693 2C430.88 2 430.019 2.42187 429.061 2.89123L429.047 2.89799C427.971 3.42552 426.79 4 424.529 4C422.269 4 421.086 3.4257 420.008 2.8982L419.993 2.89085C419.034 2.4213 418.173 2 416.366 2C414.56 2 413.699 2.4213 412.739 2.89085L412.724 2.8982C411.647 3.4257 410.464 4 408.203 4C405.943 4 404.76 3.4257 403.682 2.8982L403.667 2.89085C402.708 2.4213 401.847 2 400.04 2C398.234 2 397.373 2.42131 396.413 2.89088L396.398 2.8982C395.32 3.4257 394.138 4 391.877 4C389.617 4 388.434 3.4257 387.356 2.8982L387.341 2.8909C386.382 2.42132 385.521 2 383.714 2C381.907 2 381.047 2.42131 380.087 2.89088L380.072 2.8982C378.994 3.4257 377.811 4 375.551 4C373.291 4 372.108 3.4257 371.03 2.8982L371.015 2.89085C370.056 2.4213 369.195 2 367.388 2C365.581 2 364.72 2.4213 363.761 2.89085L363.746 2.8982C362.668 3.4257 361.485 4 359.225 4C356.965 4 355.782 3.4257 354.704 2.8982L354.689 2.89085C353.729 2.4213 352.869 2 351.062 2C349.255 2 348.394 2.4213 347.435 2.89085L347.42 2.8982C346.342 3.4257 345.159 4 342.899 4C340.639 4 339.456 3.42568 338.377 2.89841L338.363 2.89185C337.403 2.42214 336.539 2 334.726 2C332.913 2 332.052 2.42187 331.094 2.89123L331.08 2.89799C330.004 3.42552 328.823 4 326.563 4C324.302 4 323.119 3.42568 322.041 2.89841L322.027 2.89184C321.066 2.42214 320.203 2 318.39 2C316.578 2 315.717 2.4214 314.758 2.89069L314.743 2.8982C313.664 3.4259 312.482 4 310.216 4C307.951 4 306.768 3.42592 305.691 2.89799L305.674 2.88971C304.717 2.42056 303.859 2 302.053 2C300.248 2 299.387 2.42083 298.426 2.89031L298.41 2.89841C297.33 3.42608 296.145 4 293.88 4C291.615 4 290.432 3.42592 289.355 2.89799L289.338 2.88973C288.381 2.42057 287.522 2 285.717 2C283.91 2 283.05 2.4213 282.09 2.89085L282.075 2.8982C280.997 3.4257 279.814 4 277.554 4C275.294 4 274.111 3.4257 273.033 2.8982L273.018 2.8909C272.059 2.42132 271.198 2 269.391 2C267.584 2 266.724 2.42131 265.764 2.89088L265.749 2.8982C264.671 3.4257 263.488 4 261.228 4C258.968 4 257.785 3.4257 256.707 2.8982L256.692 2.89086C255.732 2.4213 254.872 2 253.065 2C251.258 2 250.397 2.42131 249.438 2.89088L249.423 2.8982C248.345 3.4257 247.162 4 244.902 4C242.642 4 241.459 3.4257 240.381 2.8982L240.366 2.89086C239.406 2.4213 238.546 2 236.739 2C234.932 2 234.071 2.4213 233.112 2.89086L233.097 2.8982C232.019 3.4257 230.836 4 228.576 4C226.315 4 225.132 3.4257 224.055 2.8982L224.04 2.89088C223.08 2.42131 222.219 2 220.413 2C218.606 2 217.745 2.4213 216.786 2.89086L216.771 2.8982C215.693 3.4257 214.51 4 212.25 4C209.989 4 208.806 3.4257 207.729 2.8982L207.714 2.89086C206.754 2.4213 205.893 2 204.087 2C202.281 2 201.423 2.42056 200.466 2.8897L200.449 2.89799C199.371 3.42592 198.189 4 195.924 4C193.658 4 192.476 3.42592 191.398 2.89799L191.381 2.88971C190.424 2.42057 189.566 2 187.76 2C185.955 2 185.097 2.42056 184.14 2.8897L184.123 2.89799C183.045 3.42592 181.862 4 179.597 4C177.332 4 176.152 3.42574 175.075 2.89777L175.06 2.89009C174.104 2.42113 173.246 2 171.434 2C169.623 2 168.765 2.42113 167.809 2.89009L167.793 2.89777C166.717 3.42574 165.537 4 163.271 4C161.006 4 159.823 3.42592 158.746 2.89799L158.729 2.8897C157.772 2.42056 156.913 2 155.108 2C153.303 2 152.445 2.42056 151.487 2.8897L151.47 2.89799C150.393 3.42592 149.21 4 146.945 4C144.68 4 143.499 3.42574 142.423 2.89777L142.408 2.89009C141.452 2.42113 140.593 2 138.782 2C136.971 2 136.113 2.42112 135.157 2.89007L135.141 2.89777C134.065 3.42574 132.884 4 130.619 4C128.354 4 127.173 3.42577 126.098 2.89756L126.081 2.8891C125.126 2.4203 124.271 2 122.466 2C120.661 2 119.803 2.42056 118.845 2.88971L118.828 2.89799C117.751 3.42592 116.568 4 114.303 4C112.038 4 110.857 3.42574 109.781 2.89777L109.765 2.89008C108.81 2.42113 107.951 2 106.14 2C104.327 2 103.466 2.42187 102.508 2.89123L102.495 2.89799C101.418 3.42552 100.237 4 97.9769 4C95.7162 4 94.5356 3.42552 93.4591 2.89799L93.4453 2.89123C92.4875 2.42187 91.6266 2 89.8138 2C88.001 2 87.1401 2.42188 86.1823 2.89125L86.1685 2.89799C85.0919 3.42552 83.9113 4 81.6507 4C79.3901 4 78.2095 3.42552 77.133 2.89799L77.1192 2.89123C76.1614 2.42187 75.3005 2 73.4877 2C71.6749 2 70.814 2.42187 69.8562 2.89123L69.8424 2.89799C68.7658 3.42552 67.5852 4 65.3246 4C63.064 4 61.8834 3.42552 60.8068 2.89799L60.7931 2.89123C59.8352 2.42187 58.9743 2 57.1616 2C55.3503 2 54.492 2.42113 53.5362 2.89008L53.5205 2.89777C52.4443 3.42574 51.2639 4 48.9985 4C46.7331 4 45.5526 3.42574 44.4765 2.89777L44.4608 2.89007C43.505 2.42112 42.6467 2 40.8354 2C39.0241 2 38.1658 2.42113 37.21 2.89008L37.1944 2.89777C36.1182 3.42574 34.9377 4 32.6724 4C30.407 4 29.2265 3.42574 28.1504 2.89777L28.1347 2.89008C27.1789 2.42113 26.3206 2 24.5093 2C22.698 2 21.8397 2.42113 20.8839 2.89008L20.8682 2.89777C19.7921 3.42574 18.6116 4 16.3463 4C14.0817 4 12.8942 3.42624 11.8126 2.89884L11.7964 2.89092C10.8329 2.4211 9.96934 2 8.16306 2C6.3563 2 5.49549 2.42131 4.5361 2.89087L4.52112 2.8982C3.44328 3.4257 2.26034 4 0 4V2C1.80676 2 2.66757 1.57869 3.62696 1.10913L3.64194 1.1018Z" fill="#FDAD18"/>
</svg>
