<svg width="1294" height="4" viewBox="0 0 1294 4" fill="none" xmlns="http://www.w3.org/2000/svg">
<path d="M1600 3C1595.91 3 1595.91 1 1591.84 1C1587.76 1 1587.76 3 1583.67 3C1579.59 3 1579.6 1 1575.51 1C1571.42 1 1571.43 3 1567.35 3C1563.26 3 1563.27 1 1559.19 1C1555.12 1 1555.12 3 1551.03 3C1546.95 3 1546.96 1 1542.87 1C1538.78 1 1538.78 3 1534.71 3C1530.63 3 1530.63 1 1526.54 1C1522.46 1 1522.46 3 1518.38 3C1514.3 3 1514.3 1 1510.22 1C1506.13 1 1506.13 3 1502.05 3C1497.98 3 1497.98 1 1493.89 1C1489.81 1 1489.81 3 1485.73 3C1481.64 3 1481.65 1 1477.56 1C1473.48 1 1473.49 3 1469.4 3C1465.31 3 1465.32 1 1461.24 1C1457.15 1 1457.16 3 1453.08 3C1448.99 3 1449 1 1444.91 1C1440.83 1 1440.84 3 1436.75 3C1432.67 3 1432.67 1 1428.59 1C1424.5 1 1424.51 3 1420.42 3C1416.34 3 1416.35 1 1412.26 1C1408.17 1 1408.18 3 1404.1 3C1400.01 3 1400.02 1 1395.93 1C1391.85 1 1391.86 3 1387.77 3C1383.68 3 1383.69 1 1379.61 1C1375.52 1 1375.53 3 1371.44 3C1367.36 3 1367.36 1 1363.28 1C1359.2 1 1359.2 3 1355.12 3C1351.03 3 1351.03 1 1346.96 1C1342.88 1 1342.88 3 1338.79 3C1334.71 3 1334.71 1 1330.63 1C1326.55 1 1326.55 3 1322.47 3C1318.38 3 1318.39 1 1314.3 1C1310.22 1 1310.23 3 1306.15 3C1302.07 3 1302.07 1 1297.99 1C1293.9 1 1293.91 3 1289.82 3C1285.74 3 1285.75 1 1281.66 1C1277.57 1 1277.57 3 1273.5 3C1269.42 3 1269.42 1 1265.33 1C1261.25 1 1261.26 3 1257.17 3C1253.09 3 1253.1 1 1249.01 1C1244.92 1 1244.92 3 1240.85 3C1236.77 3 1236.77 1 1232.68 1C1228.6 1 1228.6 3 1224.52 3C1220.44 3 1220.43 1 1216.36 1C1212.28 1 1212.27 3 1208.19 3C1204.12 3 1204.11 1 1200.03 1C1195.95 1 1195.94 3 1191.87 3C1187.79 3 1187.78 1 1183.7 1C1179.63 1 1179.62 3 1175.54 3C1171.46 3 1171.45 1 1167.38 1C1163.3 1 1163.29 3 1159.21 3C1155.14 3 1155.13 1 1151.05 1C1146.98 1 1146.97 3 1142.89 3C1138.81 3 1138.8 1 1134.72 1C1130.63 1 1130.63 3 1126.55 3C1122.48 3 1122.47 1 1118.38 1C1114.29 1 1114.29 3 1110.21 3C1106.12 3 1106.12 1 1102.04 1C1097.97 1 1097.96 3 1093.87 3C1089.78 3 1089.78 1 1085.71 1C1081.63 1 1081.62 3 1077.54 3C1073.47 3 1073.46 1 1069.38 1C1065.3 1 1065.29 3 1061.22 3C1057.14 3 1057.13 1 1053.05 1C1048.98 1 1048.97 3 1044.89 3C1040.82 3 1040.81 1 1036.73 1C1032.65 1 1032.64 3 1028.57 3C1024.49 3 1024.48 1 1020.4 1C1016.33 1 1016.32 3 1012.24 3C1008.16 3 1008.15 1 1004.08 1C1000 1 1000 3 995.913 3C991.827 3 991.827 1 987.75 1C983.674 1 983.674 3 979.587 3C975.501 3 975.511 1 971.424 1C967.338 1 967.348 3 963.261 3C959.175 3 959.175 1 955.098 1C951.022 1 951.022 3 946.935 3C942.849 3 942.859 1 938.772 1C934.685 1 934.696 3 930.609 3C926.522 3 926.533 1 922.456 1C918.38 1 918.379 3 914.293 3C910.206 3 910.216 1 906.13 1C902.043 1 902.043 3 897.967 3C893.89 3 893.89 1 889.804 1C885.717 1 885.717 3 881.641 3C877.564 3 877.564 1 873.478 1C869.391 1 869.391 3 865.315 3C861.238 3 861.238 1 857.152 1C853.065 1 853.075 3 848.988 3C844.902 3 844.912 1 840.825 1C836.739 1 836.749 3 832.662 3C828.576 3 828.586 1 824.499 1C820.413 1 820.423 3 816.336 3C812.25 3 812.26 1 808.173 1C804.087 1 804.097 3 800.01 3C795.924 3 795.924 1 791.847 1C787.771 1 787.771 3 783.684 3C779.597 3 779.607 1 775.521 1C771.434 1 771.444 3 767.358 3C763.271 3 763.281 1 759.205 1C755.128 1 755.128 3 751.042 3C746.955 3 746.965 1 742.879 1C738.792 1 738.792 3 734.716 3C730.639 3 730.639 1 726.553 1C722.466 1 722.466 3 718.39 3C714.313 3 714.313 1 710.226 1C706.14 1 706.14 3 702.063 3C697.987 3 697.987 1 693.9 1C689.824 1 689.824 3 685.737 3C681.651 3 681.661 1 677.574 1C673.488 1 673.498 3 669.411 3C665.325 3 665.335 1 661.248 1C657.162 1 657.172 3 653.085 3C648.999 3 649.009 1 644.922 1C640.835 1 640.846 3 636.759 3C632.682 3 632.682 1 628.596 1C624.509 1 624.519 3 620.433 3C616.346 3 616.356 1 612.27 1C608.183 1 608.193 3 604.107 3C600.02 3 600.03 1 595.944 1C591.857 1 591.867 3 587.781 3C583.694 3 583.704 1 579.618 1C575.531 1 575.541 3 571.454 3C567.368 3 567.368 1 563.291 1C559.215 1 559.215 3 555.128 3C551.042 3 551.042 1 546.965 1C542.889 1 542.889 3 538.802 3C534.716 3 534.716 1 530.639 1C526.563 1 526.563 3 522.476 3C518.39 3 518.4 1 514.313 1C510.226 1 510.237 3 506.16 3C502.084 3 502.084 1 497.997 1C493.91 1 493.92 3 489.834 3C485.747 3 485.757 1 481.671 1C477.584 1 477.584 3 473.508 3C469.431 3 469.431 1 465.345 1C461.258 1 461.268 3 457.182 3C453.095 3 453.105 1 449.019 1C444.932 1 444.932 3 440.856 3C436.779 3 436.779 1 432.693 1C428.606 1 428.606 3 424.529 3C420.453 3 420.443 1 416.366 1C412.29 1 412.28 3 408.203 3C404.127 3 404.117 1 400.04 1C395.964 1 395.954 3 391.877 3C387.801 3 387.791 1 383.714 1C379.638 1 379.628 3 375.551 3C371.475 3 371.465 1 367.388 1C363.312 1 363.301 3 359.225 3C355.148 3 355.138 1 351.062 1C346.985 1 346.975 3 342.899 3C338.822 3 338.812 1 334.726 1C330.639 1 330.639 3 326.563 3C322.486 3 322.476 1 318.39 1C314.303 1 314.303 3 310.216 3C306.13 3 306.13 1 302.053 1C297.977 1 297.967 3 293.88 3C289.794 3 289.794 1 285.717 1C281.641 1 281.631 3 277.554 3C273.478 3 273.468 1 269.391 1C265.315 1 265.304 3 261.228 3C257.151 3 257.141 1 253.065 1C248.988 1 248.978 3 244.902 3C240.825 3 240.815 1 236.739 1C232.662 1 232.652 3 228.576 3C224.499 3 224.489 1 220.413 1C216.336 1 216.326 3 212.25 3C208.173 3 208.163 1 204.087 1C200.01 1 200.01 3 195.924 3C191.837 3 191.837 1 187.76 1C183.684 1 183.684 3 179.597 3C175.511 3 175.521 1 171.434 1C167.348 1 167.358 3 163.271 3C159.185 3 159.185 1 155.108 1C151.032 1 151.032 3 146.945 3C142.859 3 142.869 1 138.782 1C134.696 1 134.706 3 130.619 3C126.532 3 126.543 1 122.466 1C118.39 1 118.39 3 114.303 3C110.216 3 110.226 1 106.14 1C102.053 1 102.053 3 97.9768 3C93.9004 3 93.9004 1 89.8138 1C85.7272 1 85.7272 3 81.6507 3C77.5742 3 77.5742 1 73.4877 1C69.4011 1 69.4011 3 65.3246 3C61.2481 3 61.2481 1 57.1616 1C53.075 1 53.0851 3 48.9985 3C44.9119 3 44.922 1 40.8354 1C36.7489 1 36.7589 3 32.6724 3C28.5858 3 28.5959 1 24.5093 1C20.4227 1 20.4328 3 16.3463 3C12.2597 3 12.2396 1 8.16306 1C4.08656 1 4.0765 3 0 3" stroke="#FDAD18" stroke-width="2" stroke-miterlimit="10"/>
</svg>
