<svg width="112" height="40" viewBox="0 0 112 40" fill="none" xmlns="http://www.w3.org/2000/svg">
<g clip-path="url(#clip0_682_179)">
<path d="M58.9647 8.02344V21.295H56.3481V8.02344H58.9647ZM58.0925 8.02344H64.0269V10.3928H58.0925V8.02344ZM58.0925 13.3691H63.8379V15.6259H58.0925V13.3691Z" fill="#3F3F46"/>
<path d="M68.7478 6.50781V21.2948H66.2839V6.50781H68.7478Z" fill="#3F3F46"/>
<path d="M73.7882 25.4669H71.2661L73.4647 20.4228L69.8452 12.5732H72.5744L75.3799 19.5106L74.1661 19.4743L76.9134 12.5732H79.4718L73.7845 25.4632L73.7882 25.4669Z" fill="#3F3F46"/>
<path d="M83.8652 16.945C84.265 17.5955 84.7847 18.097 85.4279 18.4422C86.0711 18.7911 86.7725 18.9655 87.532 18.9655C88.1643 18.9655 88.7276 18.8819 89.2182 18.7184C89.7124 18.5549 90.1558 18.3332 90.5555 18.0534C90.9553 17.7772 91.2969 17.4719 91.5876 17.1448V20.1974C91.0425 20.6263 90.4538 20.9606 89.8142 21.2004C89.1746 21.4403 88.3715 21.5602 87.3975 21.5602C86.4236 21.5602 85.4461 21.3967 84.5812 21.066C83.7163 20.7389 82.964 20.2629 82.3244 19.6451C81.6848 19.0273 81.1942 18.2968 80.8454 17.4574C80.4965 16.6179 80.3257 15.684 80.3257 14.6628C80.3257 13.6416 80.5001 12.7077 80.8454 11.8682C81.1942 11.0287 81.6848 10.2983 82.3244 9.67686C82.964 9.05908 83.7163 8.58301 84.5812 8.25595C85.4461 7.92889 86.3836 7.76172 87.3975 7.76172C88.4114 7.76172 89.1746 7.88164 89.8142 8.12149C90.4538 8.36134 91.0425 8.69567 91.5876 9.12449V12.1771C91.2969 11.85 90.9517 11.5448 90.5555 11.2686C90.1594 10.9924 89.7124 10.7707 89.2182 10.6035C88.724 10.44 88.1643 10.3564 87.532 10.3564C86.7725 10.3564 86.0711 10.5309 85.4279 10.8761C84.7847 11.225 84.2614 11.7192 83.8652 12.3661C83.4655 13.0093 83.2693 13.7761 83.2693 14.6591C83.2693 15.5422 83.4691 16.2945 83.8652 16.945Z" fill="#3F3F46"/>
<path d="M96.9913 8.02344V21.295H94.2803V8.02344H96.9913ZM95.1706 13.0094H104.914V15.4551H95.1706V13.0094ZM105.902 8.02344V21.295H103.191V8.02344H105.902Z" fill="#3F3F46"/>
<path d="M111.513 8.02344V21.295H108.766V8.02344H111.513Z" fill="#3F3F46"/>
<path d="M56.3446 31.3794V32.7894C56.3446 32.913 56.3773 33.0111 56.4427 33.0838C56.5081 33.1601 56.6026 33.1964 56.7298 33.1964C56.857 33.1964 56.9515 33.1601 57.0169 33.0838C57.0823 33.0111 57.115 32.913 57.115 32.7894V31.3794H57.5547V32.8185C57.5547 32.9457 57.5329 33.0547 57.4929 33.1528C57.4529 33.2473 57.3948 33.3309 57.3185 33.3963C57.2422 33.4617 57.155 33.5126 57.0568 33.5453C56.9551 33.578 56.8497 33.5962 56.7334 33.5962C56.6171 33.5962 56.5045 33.578 56.4063 33.5453C56.3082 33.5126 56.221 33.4617 56.1447 33.3963C56.0684 33.3309 56.0139 33.2509 55.9739 33.1528C55.9339 33.0547 55.9121 32.9457 55.9121 32.8185V31.3794H56.3518H56.3446Z" fill="#3F3F46"/>
<path d="M58.4341 31.3794V33.5235H57.9944V31.3794H58.4341ZM58.2633 31.3794H58.6885C58.8593 31.3794 59.001 31.4048 59.1209 31.463C59.2409 31.5175 59.3317 31.5974 59.3935 31.6992C59.4553 31.8009 59.488 31.9245 59.488 32.0626C59.488 32.2007 59.4553 32.3242 59.3935 32.426C59.3317 32.5278 59.2409 32.6077 59.1209 32.6622C59.001 32.7167 58.8557 32.7458 58.6885 32.7458H58.2633V32.3751H58.6885C58.8048 32.3751 58.8956 32.3497 58.9647 32.2952C59.0337 32.2407 59.0664 32.1644 59.0664 32.0626C59.0664 31.9608 59.0337 31.8809 58.9647 31.8264C58.8956 31.7755 58.8048 31.7501 58.6885 31.7501H58.2633V31.3794Z" fill="#3F3F46"/>
<path d="M60.2511 31.3794V33.5235H59.8296V31.3794H60.2511ZM60.1094 31.3794H61.1887V31.7501H60.1094V31.3794ZM60.1094 32.2043H61.1306V32.5677H60.1094V32.2043ZM60.1094 33.1528H61.1887V33.5235H60.1094V33.1528Z" fill="#3F3F46"/>
<path d="M61.9591 33.0112C62.0136 33.0693 62.0718 33.1166 62.1372 33.1493C62.2026 33.182 62.2716 33.1965 62.348 33.1965C62.4352 33.1965 62.5079 33.1747 62.5624 33.1275C62.6169 33.0839 62.6459 33.0221 62.6459 32.9421C62.6459 32.8731 62.6278 32.8222 62.5951 32.7786C62.5624 32.735 62.5115 32.7023 62.4461 32.6696C62.3807 32.6369 62.2971 32.6042 62.2026 32.5678C62.1517 32.5497 62.0936 32.5242 62.0282 32.4915C61.9627 32.4588 61.8973 32.4188 61.8392 32.368C61.781 32.3171 61.7302 32.2553 61.6938 32.1826C61.6539 32.1099 61.6357 32.0227 61.6357 31.921C61.6357 31.7974 61.6684 31.692 61.7302 31.6048C61.7919 31.5176 61.8755 31.4485 61.9846 31.4013C62.0936 31.3541 62.2135 31.3286 62.3443 31.3286C62.4751 31.3286 62.5987 31.3504 62.6968 31.3977C62.7949 31.4449 62.8785 31.503 62.9439 31.5721C63.0094 31.6411 63.0602 31.7138 63.1002 31.7901L62.7586 31.9791C62.7295 31.9282 62.6968 31.881 62.6568 31.841C62.6169 31.801 62.5733 31.7647 62.5188 31.7393C62.4642 31.7138 62.4097 31.6993 62.3443 31.6993C62.2571 31.6993 62.1953 31.7211 62.1517 31.7574C62.1081 31.7974 62.0863 31.8447 62.0863 31.8955C62.0863 31.9464 62.1045 31.9936 62.1372 32.0336C62.1735 32.0736 62.2244 32.1099 62.2971 32.1463C62.3698 32.1826 62.457 32.219 62.566 32.2553C62.635 32.2807 62.7041 32.3098 62.7659 32.3461C62.8313 32.3825 62.8894 32.4261 62.9403 32.4806C62.9912 32.5315 63.0348 32.5933 63.0639 32.6659C63.0929 32.7386 63.1075 32.8186 63.1075 32.9094C63.1075 33.0148 63.0857 33.1057 63.0457 33.1892C63.0057 33.2692 62.9476 33.3382 62.8785 33.3964C62.8058 33.4509 62.7259 33.4945 62.6387 33.5236C62.5478 33.5527 62.457 33.5672 62.3589 33.5672C62.228 33.5672 62.1081 33.5417 61.9918 33.4945C61.8792 33.4436 61.781 33.3746 61.6975 33.291C61.6139 33.2038 61.5485 33.1129 61.5012 33.0112L61.8137 32.7895C61.8574 32.8695 61.9082 32.9385 61.9627 32.9966L61.9591 33.0112Z" fill="#3F3F46"/>
<path d="M64.9174 32.8112L64.9247 32.9094L64.6412 33.5235H64.147L65.2336 31.2559L66.3201 33.5235H65.8259L65.5497 32.9312L65.557 32.8221L65.2372 32.0772L64.9174 32.8149V32.8112ZM64.7321 32.6877H65.7605L65.8114 33.0329H64.6775L64.7284 32.6877H64.7321Z" fill="#3F3F46"/>
<path d="M66.916 32.8187C66.9814 32.9241 67.065 33.004 67.1668 33.0585C67.2721 33.1167 67.3848 33.1421 67.5084 33.1421C67.6101 33.1421 67.701 33.1276 67.7809 33.1021C67.8609 33.0767 67.9335 33.0404 67.9953 32.9968C68.0607 32.9531 68.1152 32.9023 68.1625 32.8514V33.3456C68.0753 33.4147 67.9808 33.4692 67.8754 33.5092C67.7736 33.5491 67.6428 33.5673 67.4866 33.5673C67.3303 33.5673 67.1704 33.5419 67.0323 33.4874C66.8942 33.4328 66.7706 33.3565 66.6689 33.2584C66.5671 33.1567 66.4872 33.0404 66.429 32.9059C66.3745 32.7714 66.3455 32.6188 66.3455 32.4553C66.3455 32.2918 66.3745 32.1391 66.429 32.0047C66.4836 31.8702 66.5635 31.7503 66.6689 31.6522C66.7706 31.554 66.8942 31.4777 67.0323 31.4232C67.1704 31.3687 67.323 31.3433 67.4866 31.3433C67.6501 31.3433 67.7736 31.3614 67.8754 31.4014C67.9771 31.4414 68.0753 31.4923 68.1625 31.5649V32.0592C68.1152 32.0047 68.0607 31.9574 67.9953 31.9102C67.9299 31.8666 67.8609 31.8302 67.7809 31.8048C67.701 31.7793 67.6101 31.7648 67.5084 31.7648C67.3848 31.7648 67.2721 31.7939 67.1668 31.8484C67.0614 31.9029 66.9778 31.9865 66.916 32.0882C66.8506 32.1936 66.8179 32.3172 66.8179 32.4589C66.8179 32.6006 66.8506 32.7242 66.916 32.8296V32.8187Z" fill="#3F3F46"/>
<path d="M68.933 33.5234H68.4751L68.7949 31.2739L69.6925 32.6585L70.5901 31.2739L70.9099 33.5234H70.452L70.3139 32.3205L69.6925 33.3235L69.0711 32.3205L68.933 33.5234Z" fill="#3F3F46"/>
<path d="M72.5053 33.0112C72.5598 33.0693 72.6179 33.1166 72.6833 33.1493C72.7487 33.182 72.8178 33.1965 72.8941 33.1965C72.9813 33.1965 73.054 33.1747 73.1085 33.1275C73.163 33.0839 73.1921 33.0221 73.1921 32.9421C73.1921 32.8731 73.1739 32.8222 73.1412 32.7786C73.1085 32.735 73.0576 32.7023 72.9922 32.6696C72.9268 32.6369 72.8432 32.6042 72.7487 32.5678C72.6979 32.5497 72.6397 32.5242 72.5743 32.4915C72.5089 32.4588 72.4435 32.4188 72.3853 32.368C72.3272 32.3171 72.2763 32.2553 72.24 32.1826C72.2 32.1099 72.1818 32.0227 72.1818 31.921C72.1818 31.7974 72.2145 31.692 72.2763 31.6048C72.3381 31.5176 72.4217 31.4485 72.5307 31.4013C72.6397 31.3541 72.7596 31.3286 72.8905 31.3286C73.0213 31.3286 73.1448 31.3504 73.243 31.3977C73.3411 31.4449 73.4247 31.503 73.4901 31.5721C73.5555 31.6411 73.6064 31.7138 73.6463 31.7901L73.3047 31.9791C73.2757 31.9282 73.243 31.881 73.203 31.841C73.163 31.801 73.1194 31.7647 73.0649 31.7393C73.0104 31.7138 72.9559 31.6993 72.8905 31.6993C72.8032 31.6993 72.7415 31.7211 72.6979 31.7574C72.6542 31.7974 72.6324 31.8447 72.6324 31.8955C72.6324 31.9464 72.6506 31.9936 72.6833 32.0336C72.7197 32.0736 72.7705 32.1099 72.8432 32.1463C72.9159 32.1826 73.0031 32.219 73.1121 32.2553C73.1812 32.2807 73.2502 32.3098 73.312 32.3461C73.3774 32.3825 73.4356 32.4261 73.4864 32.4806C73.5373 32.5315 73.5809 32.5933 73.61 32.6659C73.6391 32.7386 73.6536 32.8186 73.6536 32.9094C73.6536 33.0148 73.6318 33.1057 73.5918 33.1892C73.5519 33.2692 73.4937 33.3382 73.4247 33.3964C73.352 33.4509 73.272 33.4945 73.1848 33.5236C73.094 33.5527 73.0031 33.5672 72.905 33.5672C72.7742 33.5672 72.6542 33.5417 72.538 33.4945C72.4253 33.4436 72.3272 33.3746 72.2436 33.291C72.16 33.2038 72.0946 33.1129 72.0474 33.0112L72.3599 32.7895C72.4035 32.8695 72.4544 32.9385 72.5089 32.9966L72.5053 33.0112Z" fill="#3F3F46"/>
<path d="M74.4531 31.3794V33.5235H74.0098V31.3794H74.4531Z" fill="#3F3F46"/>
<path d="M75.9576 32.375H77.0151C77.0224 32.5385 77.0042 32.6912 76.9569 32.8365C76.9133 32.9819 76.8443 33.1091 76.7534 33.2217C76.6626 33.3344 76.5463 33.4216 76.4082 33.4834C76.2701 33.5452 76.1138 33.5779 75.9394 33.5779C75.7759 33.5779 75.6232 33.5524 75.4815 33.4943C75.3434 33.4398 75.2199 33.3598 75.1181 33.2617C75.0164 33.16 74.9364 33.0437 74.8783 32.9019C74.8201 32.7602 74.7947 32.6112 74.7947 32.444C74.7947 32.2769 74.8237 32.1279 74.8819 31.9898C74.94 31.8517 75.02 31.7354 75.1254 31.6373C75.2308 31.5392 75.3507 31.4629 75.4924 31.412C75.6341 31.3575 75.7868 31.332 75.9503 31.332C76.0957 31.332 76.2301 31.3538 76.3464 31.3938C76.4627 31.4338 76.5681 31.4919 76.6589 31.5646C76.7498 31.6373 76.8261 31.7245 76.8915 31.8226L76.5172 32.0407C76.4627 31.9462 76.39 31.8699 76.2955 31.8117C76.2011 31.7536 76.0848 31.7245 75.9467 31.7245C75.8195 31.7245 75.6996 31.7536 75.5942 31.8117C75.4888 31.8699 75.4052 31.9535 75.3434 32.0625C75.2816 32.1715 75.2489 32.2987 75.2489 32.4477C75.2489 32.5967 75.278 32.7239 75.3398 32.8365C75.4016 32.9492 75.4851 33.0328 75.5905 33.0945C75.6959 33.1563 75.8158 33.1854 75.9467 33.1854C76.0339 33.1854 76.1138 33.1745 76.1829 33.1491C76.2519 33.1273 76.3137 33.0909 76.361 33.0509C76.4118 33.0073 76.4518 32.9601 76.4881 32.9056C76.5245 32.8511 76.5499 32.7893 76.5681 32.7239H75.9539V32.375H75.9576Z" fill="#3F3F46"/>
<path d="M77.8218 32.8187C77.8872 32.9241 77.9708 33.004 78.0725 33.0585C78.1779 33.1167 78.2906 33.1421 78.4141 33.1421C78.5159 33.1421 78.6067 33.1276 78.6867 33.1021C78.7666 33.0767 78.8393 33.0404 78.9011 32.9968C78.9665 32.9531 79.021 32.9023 79.0682 32.8514V33.3456C78.981 33.4147 78.8865 33.4692 78.7812 33.5092C78.6794 33.5491 78.5486 33.5673 78.3923 33.5673C78.236 33.5673 78.0762 33.5419 77.9381 33.4874C77.8 33.4328 77.6764 33.3565 77.5747 33.2584C77.4729 33.1567 77.3929 33.0404 77.3348 32.9059C77.2803 32.7714 77.2512 32.6188 77.2512 32.4553C77.2512 32.2918 77.2803 32.1391 77.3348 32.0047C77.3893 31.8702 77.4693 31.7503 77.5747 31.6522C77.6764 31.554 77.8 31.4777 77.9381 31.4232C78.0762 31.3687 78.2288 31.3433 78.3923 31.3433C78.5558 31.3433 78.6794 31.3614 78.7812 31.4014C78.8829 31.4414 78.981 31.4923 79.0682 31.5649V32.0592C79.021 32.0047 78.9665 31.9574 78.9011 31.9102C78.8357 31.8666 78.7666 31.8302 78.6867 31.8048C78.6067 31.7793 78.5159 31.7648 78.4141 31.7648C78.2906 31.7648 78.1779 31.7939 78.0725 31.8484C77.9671 31.9029 77.8835 31.9865 77.8218 32.0882C77.7564 32.1936 77.7236 32.3172 77.7236 32.4589C77.7236 32.6006 77.7564 32.7242 77.8218 32.8296V32.8187Z" fill="#3F3F46"/>
<path d="M79.9405 31.3794V33.5235H79.5007V31.3794H79.9405ZM79.6461 32.1825H81.2196V32.5786H79.6461V32.1825ZM81.3795 31.3794V33.5235H80.9398V31.3794H81.3795Z" fill="#3F3F46"/>
<path d="M82.2881 31.3794V33.5235H81.8447V31.3794H82.2881Z" fill="#3F3F46"/>
<path d="M84.0033 33.0112C84.0578 33.0693 84.116 33.1166 84.1814 33.1493C84.2468 33.182 84.3158 33.1965 84.3921 33.1965C84.4794 33.1965 84.552 33.1747 84.6066 33.1275C84.6611 33.0839 84.6901 33.0221 84.6901 32.9421C84.6901 32.8731 84.672 32.8222 84.6393 32.7786C84.6066 32.735 84.5557 32.7023 84.4903 32.6696C84.4248 32.6369 84.3413 32.6042 84.2468 32.5678C84.1959 32.5497 84.1378 32.5242 84.0723 32.4915C84.0069 32.4588 83.9415 32.4188 83.8834 32.368C83.8252 32.3171 83.7744 32.2553 83.738 32.1826C83.698 32.1099 83.6799 32.0227 83.6799 31.921C83.6799 31.7974 83.7126 31.692 83.7744 31.6048C83.8361 31.5176 83.9197 31.4485 84.0287 31.4013C84.1378 31.3541 84.2577 31.3286 84.3885 31.3286C84.5193 31.3286 84.6429 31.3504 84.741 31.3977C84.8391 31.4449 84.9227 31.503 84.9881 31.5721C85.0535 31.6411 85.1044 31.7138 85.1444 31.7901L84.8028 31.9791C84.7737 31.9282 84.741 31.881 84.701 31.841C84.6611 31.801 84.6175 31.7647 84.5629 31.7393C84.5084 31.7138 84.4539 31.6993 84.3885 31.6993C84.3013 31.6993 84.2395 31.7211 84.1959 31.7574C84.1523 31.7974 84.1305 31.8447 84.1305 31.8955C84.1305 31.9464 84.1487 31.9936 84.1814 32.0336C84.2177 32.0736 84.2686 32.1099 84.3413 32.1463C84.4139 32.1826 84.5012 32.219 84.6102 32.2553C84.6792 32.2807 84.7483 32.3098 84.8101 32.3461C84.8755 32.3825 84.9336 32.4261 84.9845 32.4806C85.0354 32.5315 85.079 32.5933 85.1081 32.6659C85.1371 32.7386 85.1517 32.8186 85.1517 32.9094C85.1517 33.0148 85.1299 33.1057 85.0899 33.1892C85.0499 33.2692 84.9918 33.3382 84.9227 33.3964C84.85 33.4509 84.7701 33.4945 84.6829 33.5236C84.592 33.5527 84.5012 33.5672 84.403 33.5672C84.2722 33.5672 84.1523 33.5417 84.036 33.4945C83.9233 33.4436 83.8252 33.3746 83.7416 33.291C83.6581 33.2038 83.5927 33.1129 83.5454 33.0112L83.8579 32.7895C83.9015 32.8695 83.9524 32.9385 84.0069 32.9966L84.0033 33.0112Z" fill="#3F3F46"/>
<path d="M85.2935 31.3794H86.8852V31.7755H86.3074V33.5235H85.8676V31.7755H85.2935V31.3794Z" fill="#3F3F46"/>
<path d="M87.5575 31.3794V32.7894C87.5575 32.913 87.5902 33.0111 87.6556 33.0838C87.721 33.1601 87.8155 33.1964 87.9427 33.1964C88.0699 33.1964 88.1643 33.1601 88.2298 33.0838C88.2952 33.0111 88.3279 32.913 88.3279 32.7894V31.3794H88.7676V32.8185C88.7676 32.9457 88.7458 33.0547 88.7058 33.1528C88.6658 33.2473 88.6077 33.3309 88.5314 33.3963C88.4551 33.4617 88.3678 33.5126 88.2697 33.5453C88.168 33.578 88.0626 33.5962 87.9463 33.5962C87.83 33.5962 87.7174 33.578 87.6192 33.5453C87.5211 33.5126 87.4339 33.4617 87.3576 33.3963C87.2813 33.3309 87.2268 33.2509 87.1868 33.1528C87.1468 33.0547 87.125 32.9457 87.125 32.8185V31.3794H87.5647H87.5575Z" fill="#3F3F46"/>
<path d="M89.6543 31.3793V33.5234H89.2073V31.3793H89.6543ZM89.4907 33.5234V33.1237H89.9232C90.0177 33.1237 90.1049 33.1091 90.1885 33.0837C90.2721 33.0583 90.3447 33.0183 90.4101 32.9638C90.4719 32.9093 90.5228 32.8402 90.5591 32.753C90.5955 32.6658 90.6137 32.5677 90.6137 32.4477C90.6137 32.3278 90.5955 32.2297 90.5591 32.1425C90.5228 32.0553 90.4756 31.9899 90.4101 31.9317C90.3484 31.8772 90.2721 31.8372 90.1885 31.8118C90.1049 31.7864 90.0177 31.7718 89.9232 31.7718H89.4907V31.3721H89.9377C90.163 31.3721 90.3593 31.4157 90.5264 31.5029C90.6936 31.5901 90.8244 31.7137 90.9189 31.8736C91.0134 32.0335 91.0606 32.2224 91.0606 32.4405C91.0606 32.6585 91.0134 32.8475 90.9189 33.0074C90.8244 33.1673 90.6936 33.2908 90.5264 33.3781C90.3593 33.4653 90.163 33.5089 89.9377 33.5089H89.4907V33.5234Z" fill="#3F3F46"/>
<path d="M91.8237 31.3794V33.5235H91.4021V31.3794H91.8237ZM91.6819 31.3794H92.7612V31.7501H91.6819V31.3794ZM91.6819 32.2043H92.7031V32.5677H91.6819V32.2043ZM91.6819 33.1528H92.7612V33.5235H91.6819V33.1528Z" fill="#3F3F46"/>
<path d="M95.1417 31.3793V33.6288L93.6154 32.1933V33.5234H93.1938V31.2739L94.7201 32.7094V31.3793H95.1417Z" fill="#3F3F46"/>
<path d="M95.3923 31.3794H96.9841V31.7755H96.4062V33.5235H95.9665V31.7755H95.3923V31.3794Z" fill="#3F3F46"/>
<path d="M98.6013 32.8187C98.6667 32.9241 98.7503 33.004 98.8521 33.0585C98.9574 33.1167 99.0701 33.1421 99.1937 33.1421C99.2954 33.1421 99.3863 33.1276 99.4662 33.1021C99.5462 33.0767 99.6188 33.0404 99.6806 32.9968C99.746 32.9531 99.8005 32.9023 99.8478 32.8514V33.3456C99.7606 33.4147 99.6661 33.4692 99.5607 33.5092C99.4589 33.5491 99.3281 33.5673 99.1718 33.5673C99.0156 33.5673 98.8557 33.5419 98.7176 33.4874C98.5795 33.4328 98.4559 33.3565 98.3542 33.2584C98.2524 33.1567 98.1725 33.0404 98.1143 32.9059C98.0598 32.7714 98.0308 32.6188 98.0308 32.4553C98.0308 32.2918 98.0598 32.1391 98.1143 32.0047C98.1688 31.8702 98.2488 31.7503 98.3542 31.6522C98.4559 31.554 98.5795 31.4777 98.7176 31.4232C98.8557 31.3687 99.0083 31.3433 99.1718 31.3433C99.3354 31.3433 99.4589 31.3614 99.5607 31.4014C99.6624 31.4414 99.7606 31.4923 99.8478 31.5649V32.0592C99.8005 32.0047 99.746 31.9574 99.6806 31.9102C99.6152 31.8666 99.5462 31.8302 99.4662 31.8048C99.3863 31.7793 99.2954 31.7648 99.1937 31.7648C99.0701 31.7648 98.9574 31.7939 98.8521 31.8484C98.7467 31.9029 98.6631 31.9865 98.6013 32.0882C98.5359 32.1936 98.5032 32.3172 98.5032 32.4589C98.5032 32.6006 98.5359 32.7242 98.6013 32.8296V32.8187Z" fill="#3F3F46"/>
<path d="M100.724 31.3794V33.5235H100.284V31.3794H100.724ZM100.429 32.1825H102.003V32.5786H100.429V32.1825ZM102.163 31.3794V33.5235H101.723V31.3794H102.163Z" fill="#3F3F46"/>
<path d="M103.158 32.8112L103.166 32.9094L102.882 33.5235H102.388L103.475 31.2559L104.561 33.5235H104.067L103.791 32.9312L103.798 32.8221L103.478 32.0772L103.158 32.8149V32.8112ZM102.973 32.6877H104.001L104.052 33.0329H102.919L102.969 32.6877H102.973Z" fill="#3F3F46"/>
<path d="M105.241 31.3794V33.5235H104.801V31.3794H105.241ZM105.07 31.3794H105.495C105.666 31.3794 105.808 31.4048 105.928 31.463C106.047 31.5175 106.138 31.5974 106.2 31.6992C106.262 31.8009 106.295 31.9245 106.295 32.0626C106.295 32.2007 106.262 32.3242 106.2 32.426C106.138 32.5278 106.047 32.6077 105.928 32.6622C105.808 32.7167 105.662 32.7458 105.495 32.7458H105.07V32.3751H105.495C105.611 32.3751 105.702 32.3497 105.771 32.2952C105.84 32.2407 105.873 32.1644 105.873 32.0626C105.873 31.9608 105.84 31.8809 105.771 31.8264C105.702 31.7755 105.611 31.7501 105.495 31.7501H105.07V31.3794Z" fill="#3F3F46"/>
<path d="M106.331 31.3794H107.923V31.7755H107.345V33.5235H106.905V31.7755H106.331V31.3794Z" fill="#3F3F46"/>
<path d="M108.591 31.3794V33.5235H108.17V31.3794H108.591ZM108.449 31.3794H109.529V31.7501H108.449V31.3794ZM108.449 32.2043H109.471V32.5677H108.449V32.2043ZM108.449 33.1528H109.529V33.5235H108.449V33.1528Z" fill="#3F3F46"/>
<path d="M110.401 31.3794V33.5235H109.961V31.3794H110.401ZM110.23 31.3794H110.685C110.855 31.3794 110.997 31.4085 111.117 31.4666C111.237 31.5248 111.328 31.6047 111.39 31.7065C111.451 31.8082 111.484 31.9281 111.484 32.0662C111.484 32.2043 111.451 32.3206 111.39 32.4224C111.328 32.5241 111.237 32.6041 111.117 32.6622C110.997 32.7204 110.855 32.7494 110.685 32.7494H110.23V32.4006H110.656C110.732 32.4006 110.801 32.3897 110.855 32.3606C110.914 32.3352 110.954 32.2988 110.986 32.2516C111.015 32.2043 111.033 32.1462 111.033 32.0808C111.033 32.0154 111.019 31.9572 110.986 31.9063C110.954 31.8555 110.914 31.8227 110.855 31.7973C110.801 31.7719 110.732 31.7573 110.656 31.7573H110.23V31.383V31.3794ZM110.914 32.5241L111.611 33.5235H111.095L110.452 32.5241H110.914Z" fill="#3F3F46"/>
<path d="M40.4746 20.146L27.6536 32.9669L26.7342 20.146L20.4873 40.1332L0.5 20.146L20.4873 0.158691L40.4746 20.146Z" fill="#3F3F46"/>
</g>
<defs>
<clipPath id="clip0_682_179">
<rect width="112" height="40" fill="white"/>
</clipPath>
</defs>
</svg>
