<svg width="115" height="40" viewBox="0 0 115 40" fill="none" xmlns="http://www.w3.org/2000/svg">
<g clip-path="url(#clip0_686_186)">
<path d="M51.4791 39.3828H47.8835V32.0404H41.1462V39.3828H37.539V22.3707H41.1462V29.0383H47.8835V22.3707H51.4791V39.3828ZM63.0106 25.1285C62.3201 25.1285 61.7073 25.2643 61.172 25.5358C60.6445 25.7995 60.1985 26.1835 59.8339 26.6878C59.477 27.192 59.2055 27.801 59.0194 28.5146C58.8332 29.2283 58.7401 30.0312 58.7401 30.9233C58.7401 32.1257 58.8875 33.1536 59.1823 34.0069C59.4848 34.8525 59.9502 35.5002 60.5786 35.9501C61.207 36.3923 62.0176 36.6134 63.0106 36.6134C63.701 36.6134 64.3914 36.5358 65.0818 36.3807C65.78 36.2255 66.5363 36.0044 67.3508 35.7174V38.7428C66.5984 39.0531 65.8575 39.2742 65.1283 39.4061C64.3991 39.5457 63.5807 39.6155 62.6731 39.6155C60.9199 39.6155 59.477 39.2548 58.3445 38.5334C57.2196 37.8042 56.3857 36.7879 55.8427 35.4847C55.2997 34.1737 55.0282 32.6455 55.0282 30.9001C55.0282 29.6123 55.2027 28.4332 55.5518 27.3627C55.9009 26.2921 56.4129 25.3651 57.0878 24.5816C57.7626 23.7981 58.5966 23.193 59.5895 22.7664C60.5825 22.3397 61.7228 22.1264 63.0106 22.1264C63.8561 22.1264 64.7017 22.235 65.5472 22.4522C66.4006 22.6617 67.2151 22.9526 67.9908 23.3249L66.8272 26.2572C66.1911 25.9547 65.5511 25.6909 64.9073 25.466C64.2634 25.241 63.6312 25.1285 63.0106 25.1285ZM70.9813 39.3828V22.3707H74.5885V39.3828H70.9813ZM84.3047 22.3707C86.5001 22.3707 88.102 22.8439 89.1105 23.7904C90.1189 24.729 90.6232 26.0245 90.6232 27.6768C90.6232 28.4215 90.5107 29.1352 90.2857 29.8179C90.0608 30.4928 89.6923 31.094 89.1803 31.6215C88.676 32.149 88.0012 32.5679 87.1556 32.8782C86.31 33.1807 85.2667 33.332 84.0255 33.332H82.4779V39.3828H78.8706V22.3707H84.3047ZM84.1186 25.3263H82.4779V30.3764H83.6647C84.3396 30.3764 84.9253 30.2872 85.4218 30.1088C85.9183 29.9304 86.3023 29.6511 86.5738 29.271C86.8453 28.8909 86.981 28.4022 86.981 27.8048C86.981 26.967 86.7483 26.3464 86.2829 25.943C85.8174 25.5319 85.096 25.3263 84.1186 25.3263ZM104.249 39.3828L103.016 35.3334H96.8136L95.5802 39.3828H91.6937L97.6979 22.3009H102.108L108.136 39.3828H104.249ZM102.155 32.308L100.921 28.3517C100.844 28.088 100.739 27.7505 100.607 27.3394C100.483 26.9205 100.355 26.4977 100.223 26.071C100.099 25.6366 99.998 25.2604 99.9205 24.9423C99.8429 25.2604 99.7343 25.656 99.5946 26.1292C99.4628 26.5947 99.3348 27.0368 99.2107 27.4557C99.0865 27.8746 98.9973 28.1733 98.943 28.3517L97.7212 32.308H102.155ZM110.288 39.3828V22.3707H113.895V39.3828H110.288Z" fill="#3F3F46"/>
<g clip-path="url(#clip1_686_186)">
<path d="M17.2926 39.8584C12.8732 39.8584 10.2355 37.3559 8.39599 33.7963C7.96793 32.9697 7.70184 32.0531 7.47046 31.1477C6.37718 26.9301 4.50299 23.0837 1.85946 19.5691C1.30993 18.8381 0.82981 17.9552 0.63892 17.0779C0.210864 15.0816 1.32728 13.9682 3.40971 14.4181C4.47407 14.6486 5.57892 15.2447 6.38297 15.9645C8.78933 18.1239 10.195 20.8681 10.652 24.0228C11.0569 26.7952 11.2478 29.6013 11.7337 32.3567C12.4799 36.5293 15.9101 38.52 20.046 37.3503C24.1473 36.1919 26.9296 31.8169 26.1603 27.723C26.0909 27.3575 25.8364 27.0089 25.8422 26.6602C25.8479 26.261 25.9463 25.6424 26.2066 25.5187C26.5247 25.3668 27.1957 25.4906 27.4618 25.7436C28.7691 27.0089 29.2724 28.5834 28.9542 30.3548C28.0229 35.5789 22.7301 39.8752 17.281 39.8584H17.2926Z" fill="#3F3F46"/>
<path d="M25.7724 20.3678C26.0442 17.6854 27.1954 10.718 31.9213 10.7124C32.0891 10.7124 32.2337 10.8192 32.2857 10.9711C32.5518 11.7359 31.7131 14.8119 26.4434 20.6602C26.2004 20.9301 25.7376 20.7221 25.7724 20.3678Z" fill="#3F3F46"/>
<path d="M22.9151 19.4686C22.3193 19.4742 21.8334 19.0075 21.8392 18.4283C21.8912 15.296 22.4234 6.2536 26.9238 5.96681C26.9238 5.96681 30.3656 5.39885 23.858 18.8781C23.6844 19.2324 23.32 19.463 22.9151 19.4686Z" fill="#3F3F46"/>
<path d="M18.0966 20.003C17.0901 17.6918 15.8811 12.94 16.6158 4.10562C16.6621 3.5714 16.8182 3.04842 17.0785 2.57044C17.9289 1.01838 19.9245 -1.93391 20.9658 2.39611C21.1219 3.05405 21.174 3.7401 21.1335 4.41491C20.9542 7.17038 20.3699 15.6392 19.7047 19.7837C19.5659 20.6328 18.4379 20.7846 18.0966 20.003Z" fill="#3F3F46"/>
<path d="M14.7638 21.5093C12.045 17.9272 6.97777 9.72266 10.408 4.91465C10.7666 4.41416 11.322 4.4704 11.8946 4.91465C13.2713 5.96622 14.3415 11.3253 15.6372 21.1719C15.7703 22.1729 15.3827 22.3247 14.7638 21.5149V21.5093Z" fill="#3F3F46"/>
</g>
</g>
<defs>
<clipPath id="clip0_686_186">
<rect width="114.118" height="40" fill="white" transform="translate(0.441162)"/>
</clipPath>
<clipPath id="clip1_686_186">
<rect width="31.7745" height="39.7181" fill="white" transform="translate(0.551514 0.140625)"/>
</clipPath>
</defs>
</svg>
