<?xml version="1.0" encoding="UTF-8"?><svg id="b" xmlns="http://www.w3.org/2000/svg" xmlns:xlink="http://www.w3.org/1999/xlink" viewBox="0 0 419.05 350.41"><defs><style>.e{fill:url(#d);}.f{fill:#1f1f1f;}</style><linearGradient id="d" x1="186.24" y1="78.7" x2="398.56" y2="213.33" gradientUnits="userSpaceOnUse"><stop offset="0" stop-color="#fa0"/><stop offset=".1" stop-color="#ffa501"/><stop offset=".21" stop-color="#ff9805"/><stop offset=".32" stop-color="#ff820c"/><stop offset=".43" stop-color="#ff6416"/><stop offset=".55" stop-color="#ff3d22"/><stop offset=".6" stop-color="#ff2929"/><stop offset="1" stop-color="#ff006a"/></linearGradient></defs><g id="c"><path class="f" d="m0,349.84v-28.27h4.33v28.27H0Z"/><path class="f" d="m14.46,349.84h-4.1v-22h4v5.7h.42c1.22-3.91,4.15-6.27,7.96-6.27,4.9,0,7.11,3.2,7.11,8.01v14.56h-4.1v-13.57c0-3.01-1.22-5.28-4.76-5.28-3.91,0-6.55,2.5-6.55,6.27v12.58Z"/><path class="f" d="m50.73,343.95h-.28c-1.08,3.77-3.82,6.45-7.96,6.45-5.37,0-8.43-4.05-8.43-11.5s3.16-11.64,8.53-11.64c4.33,0,6.78,2.64,7.87,6.41h.28v-14.09h4.1v30.25h-4.1v-5.89Zm0-4.19v-1.7c0-4.19-2.5-7.07-6.45-7.07s-6.17,2.54-6.17,7.91,1.98,7.82,6.17,7.82c3.91,0,6.45-2.68,6.45-6.97Z"/><path class="f" d="m60.72,323.6v-3.72h4.71v3.72h-4.71Zm.28,26.24v-22h4.1v22h-4.1Z"/><path class="f" d="m85.07,344.61h-.42c-1.08,3.63-3.91,5.7-7.82,5.7-4.15,0-6.83-1.88-6.83-6.12,0-3.82,2.45-6.6,7.82-6.6h7.07v-1.79c0-3.3-1.27-5.09-4.85-5.09-2.97,0-4.62,1.46-5.32,4.38l-3.86-.94c.89-4.24,4.05-6.83,9.33-6.83,6.12,0,8.81,2.97,8.81,8.43v14.09h-3.91v-5.23Zm-.19-2.97v-1.22h-6.45c-2.87,0-4.52,1.13-4.52,3.3,0,1.74,1.08,3.3,4.33,3.3,4.05,0,6.64-2.26,6.64-5.37Z"/><path class="f" d="m123.37,349.84v-12.15h-15.08v12.15h-4.33v-28.27h4.33v12.2h15.08v-12.2h4.33v28.27h-4.33Z"/><path class="f" d="m132.36,335.66c0-9,5.09-14.65,13.57-14.65,7.21,0,11.59,4,12.63,10.65l-4.1.8c-.99-4.9-3.67-7.63-8.57-7.63-6.31,0-9.19,4.43-9.19,10.84,0,6.74,2.87,10.98,9.09,10.98,5.28,0,7.82-2.83,8.81-7.87l4.1.75c-.99,6.74-5.42,10.88-12.91,10.88-8.62,0-13.43-5.75-13.43-14.75Z"/><path class="f" d="m163.36,349.84v-28.27h4.33v28.27h-4.33Z"/><path class="f" d="m188.5,332.6l-6.36-.75c.71-6.69,4.15-10.98,12.15-10.98,7.21,0,11.17,2.97,11.17,9.38,0,5.51-4.57,8.24-11.45,9.61-5.04,1.18-6.69,2.12-6.97,4.66,2.59-.28,5.98-.52,8.15-.52h10.36v5.75h-24.22c-.09-1.13-.09-2.21-.09-3.44,0-6.45,2.87-9.09,9.47-10.79,6.88-1.79,8.1-3.02,8.1-5.51,0-2.12-1.37-3.58-4.57-3.58-3.58,0-5.32,2.12-5.75,6.17Z"/><path class="f" d="m233.77,335.52c0,9.66-4.76,14.89-12.72,14.89s-12.67-5.23-12.67-14.89,5.04-14.7,12.67-14.7,12.72,5.09,12.72,14.7Zm-18.66,0c0,5.65,1.88,9.09,5.89,9.09s5.98-3.44,5.98-9.09-1.84-8.81-5.94-8.81-5.94,3.16-5.94,8.81Z"/><path class="f" d="m243.47,332.6l-6.36-.75c.71-6.69,4.15-10.98,12.15-10.98,7.21,0,11.17,2.97,11.17,9.38,0,5.51-4.57,8.24-11.45,9.61-5.04,1.18-6.69,2.12-6.97,4.66,2.59-.28,5.98-.52,8.15-.52h10.36v5.75h-24.22c-.09-1.13-.09-2.21-.09-3.44,0-6.45,2.87-9.09,9.47-10.79,6.88-1.79,8.1-3.02,8.1-5.51,0-2.12-1.37-3.58-4.57-3.58-3.58,0-5.32,2.12-5.75,6.17Z"/><path class="f" d="m263.44,341.08l6.55-.75c.47,2.87,1.74,4.62,5.98,4.62,3.39,0,4.95-1.37,4.95-3.58s-.99-3.44-4.66-3.44h-4.76v-4.62h4.76c2.54,0,3.96-.9,3.96-3.35s-1.37-3.63-4.38-3.63c-3.68,0-4.76,1.65-5.18,4.48l-6.27-.57c.75-5.7,4.05-9.23,11.4-9.23s10.69,2.54,10.69,7.58c0,3.82-2.31,5.8-6.5,6.64v.57c5.79.57,7.63,2.4,7.63,6.36,0,4.81-3.34,8.06-11.68,8.06-7.58,0-11.78-2.73-12.48-9.14Z"/><rect class="f" width="287.63" height="288.57" rx="24" ry="24"/><path class="e" d="m419.05,143.93c0,9.64-8.98,18.13-11.03,27.15-2.12,9.31,2.24,20.85-1.81,29.25-4.12,8.54-15.9,12.3-21.76,19.64-5.88,7.37-6.96,19.68-14.32,25.57-7.33,5.86-19.57,4.18-28.11,8.3-8.4,4.05-14.69,14.7-24,16.82-9.02,2.05-19.28-4.77-28.92-4.77s-19.91,6.82-28.92,4.77-15.6-12.77-24-16.82c-8.54-4.12-20.77-2.44-28.11-8.3-7.37-5.88-8.44-18.2-14.32-25.57-5.86-7.33-17.64-11.1-21.76-19.64-4.05-8.4.3-19.94-1.81-29.25s-11.03-17.51-11.03-27.15,8.98-18.13,11.03-27.15c2.12-9.31-2.24-20.85,1.81-29.25,4.12-8.54,15.9-12.3,21.76-19.64,5.88-7.37,6.96-19.68,14.32-25.57,7.33-5.86,19.57-4.18,28.11-8.3,8.4-4.05,14.69-14.7,24-16.82,9.02-2.05,19.28,4.77,28.92,4.77s19.91-6.82,28.92-4.77c9.31,2.12,15.6,12.77,24,16.82,8.54,4.12,20.77,2.44,28.11,8.3,7.37,5.88,8.44,18.2,14.32,25.57,5.86,7.33,17.64,11.1,21.76,19.64,4.05,8.4-.3,19.94,1.81,29.25,2.05,9.02,11.03,17.51,11.03,27.15Z"/><path class="f" d="m263.68,262.54s-.01,0-.02,0c-1.33,0-2.65-.35-3.84-.95-2.99-1.52-5.87-4.17-8.89-6.96-3.52-3.25-7.16-6.6-11.35-8.43-4.49-1.99-9.05-2.8-13.46-3.58-9.16-1.62-16.4-2.91-19.01-14.28l-.04-.15c-3.12-9.92-9.77-18.25-18.73-23.48-10.95-6.02-10.55-13.2-10.03-22.28.46-8.15.98-17.38-6.45-27.28-2.43-4.26-4.71-8.28-4.71-11.63s2.28-7.37,4.71-11.63c7.44-9.92,6.92-19.14,6.45-27.28-.52-9.07-.93-16.23,9.99-22.25,8.99-5.23,15.65-13.57,18.77-23.5l.04-.15c2.6-11.35,9.87-12.65,19.08-14.29,4.39-.78,8.93-1.59,13.4-3.56,4.18-1.83,7.81-5.18,11.33-8.42,3.02-2.79,5.91-5.45,8.9-6.96,1.19-.6,2.5-.95,3.83-.95,0,0,.02,0,.03,0,3.65,0,7.45,1.17,11.47,2.4.88.27,1.75.54,2.63.8,5.87,1.73,9.82,6.96,9.82,13.03v205.55c0,6.07-3.95,11.3-9.82,13.03-.88.26-1.75.53-2.63.8-4.02,1.24-7.83,2.41-11.47,2.41Z"/></g></svg>