<svg width="48" height="40" viewBox="0 0 48 40" fill="none" xmlns="http://www.w3.org/2000/svg">
<g clip-path="url(#clip0_691_217)">
<path d="M0.388428 36.5537H0.776954V39.9527H0.388428V36.5537Z" fill="#3F3F46"/>
<path d="M1.50504 37.5249H1.82086L1.86971 37.7919H1.89357C1.94242 37.734 2.00036 37.6806 2.07306 37.6363C2.19462 37.559 2.37411 37.4761 2.62177 37.4761C3.1807 37.4761 3.59309 37.8885 3.59309 38.4951V39.9515H3.22842V38.4951C3.22842 38.1066 2.93759 37.8157 2.57292 37.8157C2.18439 37.8157 1.86858 38.1316 1.86858 38.4951V39.9515H1.50391V37.5238L1.50504 37.5249Z" fill="#3F3F46"/>
<path d="M6.04361 39.6129H6.01976C5.82549 39.8606 5.58806 40.0014 5.2427 40.0014C4.60652 40.0014 4.12598 39.4914 4.12598 38.7393C4.12598 37.9872 4.60652 37.4772 5.2427 37.4772C5.58693 37.4772 5.82549 37.618 6.01976 37.8657H6.04361V36.5547H6.40828V39.9537H6.09246L6.04361 39.614V39.6129ZM6.04361 38.7393C6.04361 38.1804 5.67894 37.8168 5.26656 37.8168C4.85418 37.8168 4.48951 38.1815 4.48951 38.7393C4.48951 39.2971 4.85418 39.6618 5.26656 39.6618C5.67894 39.6618 6.04361 39.2971 6.04361 38.7393Z" fill="#3F3F46"/>
<path d="M7.11157 36.6025H7.52396V37.0149H7.11157V36.6025ZM7.13543 37.525H7.5001V39.9527H7.13543V37.525Z" fill="#3F3F46"/>
<path d="M9.7335 39.6605H9.70964C9.66647 39.7241 9.6074 39.7821 9.53469 39.8309C9.41314 39.9229 9.2291 40.0013 8.95645 40.0013C8.44637 40.0013 8.10669 39.6901 8.10669 39.2493C8.10669 38.7835 8.39752 38.4722 9.078 38.4722H9.7335V38.3995C9.7335 38.0303 9.51992 37.8167 9.15071 37.8167C8.7815 37.8167 8.56792 38.011 8.54406 38.2291H8.1794C8.20325 37.8406 8.54407 37.4771 9.15071 37.4771C9.75736 37.4771 10.097 37.8122 10.097 38.3995V39.9536H9.78121L9.73236 39.6628L9.7335 39.6605ZM9.7335 38.8108H9.078C8.63608 38.8108 8.47136 39.0096 8.47136 39.2481C8.47136 39.4867 8.64176 39.6605 8.95645 39.6605C9.44154 39.6605 9.7335 39.3742 9.7335 38.9085V38.8119V38.8108Z" fill="#3F3F46"/>
<path d="M11.9419 36.5537H12.3304V38.059H14.2242V36.5537H14.6127V39.9527H14.2242V38.4236H12.3304V39.9527H11.9419V36.5537Z" fill="#3F3F46"/>
<path d="M18.3755 38.836C18.1812 39.5597 17.5984 40.0016 16.8702 40.0016C15.9773 40.0016 15.2434 39.2973 15.2434 38.2533C15.2434 37.2092 15.9762 36.5049 16.8702 36.5049C17.5984 36.5049 18.1812 36.9468 18.3755 37.6455H17.9631C17.7927 37.1604 17.3803 36.8684 16.8702 36.8684C16.1909 36.8684 15.6319 37.4217 15.6319 38.2521C15.6319 39.0826 16.1909 39.6358 16.8702 39.6358C17.3803 39.6358 17.7927 39.345 17.9631 38.8349H18.3755V38.836Z" fill="#3F3F46"/>
<path d="M18.9331 36.5537H19.3216V39.9527H18.9331V36.5537Z" fill="#3F3F46"/>
<path d="M21.0928 39.3937L22.4765 38.0588C22.598 37.9373 22.6946 37.8407 22.6946 37.5976C22.6946 37.3306 22.5003 37.1125 22.2095 37.1125C21.9187 37.1125 21.6756 37.3602 21.6756 37.6953H21.0439C21.0439 36.9909 21.529 36.5059 22.2095 36.5059C22.89 36.5059 23.3501 36.9671 23.3501 37.5987C23.3501 38.0645 23.0684 38.2929 22.8162 38.5451L22.0153 39.3221V39.346H23.399V39.9526H21.0928V39.3937Z" fill="#3F3F46"/>
<path d="M26.6275 38.2533C26.6275 39.3654 25.9959 40.0016 25.2188 40.0016C24.4418 40.0016 23.8113 39.3654 23.8113 38.2533C23.8113 37.1411 24.4429 36.5049 25.2188 36.5049C25.9947 36.5049 26.6275 37.1411 26.6275 38.2533ZM25.9959 38.2533C25.9959 37.4762 25.6312 37.1127 25.2188 37.1127C24.8065 37.1127 24.4418 37.4773 24.4418 38.2533C24.4418 39.0292 24.8065 39.3938 25.2188 39.3938C25.6312 39.3938 25.9959 39.0292 25.9959 38.2533Z" fill="#3F3F46"/>
<path d="M27.1126 39.3937L28.4963 38.0588C28.6178 37.9373 28.7144 37.8407 28.7144 37.5976C28.7144 37.3306 28.5201 37.1125 28.2293 37.1125C27.9385 37.1125 27.6954 37.3602 27.6954 37.6953H27.0637C27.0637 36.9909 27.5488 36.5059 28.2293 36.5059C28.9098 36.5059 29.3699 36.9671 29.3699 37.5987C29.3699 38.0645 29.0881 38.2929 28.8359 38.5451L28.035 39.3221V39.346H29.4187V39.9526H27.1126V39.3937Z" fill="#3F3F46"/>
<path d="M30.5253 38.9324C30.5253 39.1801 30.7389 39.3937 31.1081 39.3937C31.4773 39.3937 31.667 39.2039 31.667 38.9563C31.667 38.6848 31.4727 38.4951 31.0842 38.4951H30.8661V37.9361H31.0842C31.4534 37.9361 31.6182 37.7464 31.6182 37.4987C31.6182 37.2806 31.4534 37.1102 31.1081 37.1102C30.7627 37.1102 30.5741 37.275 30.5741 37.5226H29.9425C29.9425 36.9591 30.4037 36.5024 31.1319 36.5024C31.8067 36.5024 32.2487 36.9398 32.2487 37.4976C32.2487 37.7691 32.1316 37.9395 32.0158 38.0509C31.9476 38.1145 31.8704 38.1679 31.7874 38.2008V38.2247C31.8794 38.2633 31.9669 38.3167 32.0396 38.3849C32.1703 38.5019 32.2975 38.6961 32.2975 39.0017C32.2975 39.5357 31.8363 39.9969 31.1081 39.9969C30.3799 39.9969 29.8948 39.5311 29.8948 38.929H30.5264L30.5253 38.9324Z" fill="#3F3F46"/>
<path d="M47.6058 16.3512C47.6058 15.2561 46.5856 14.2916 46.3527 13.2668C46.1119 12.2092 46.6072 10.8982 46.1471 9.94393C45.6791 8.97375 44.3408 8.5466 43.6751 7.71274C43.0071 6.87548 42.8844 5.47701 42.0483 4.80788C41.2156 4.14216 39.825 4.33302 38.8549 3.86497C37.9006 3.40487 37.186 2.19499 36.1284 1.95415C35.1037 1.72126 33.9381 2.49604 32.8429 2.49604C32.7873 2.49604 32.7316 2.49263 32.6759 2.48923V0.907856C32.6759 0.405726 32.2692 -0.000976562 31.7671 -0.000976562H0.908833C0.406703 0.000159478 0 0.406862 0 0.908992V31.8741C0 32.3762 0.406703 32.7829 0.908833 32.7829H31.7671C32.2692 32.7829 32.6759 32.3762 32.6759 31.8741V30.2109C32.7316 30.2075 32.7873 30.2041 32.8429 30.2041C33.9381 30.2041 35.1037 30.9789 36.1284 30.746C37.186 30.5051 37.9006 29.2952 38.8549 28.8352C39.825 28.3671 41.2144 28.558 42.0471 27.8922C42.8844 27.2242 43.006 25.8246 43.674 24.9874C44.3397 24.1547 45.6779 23.7264 46.146 22.7562C46.6061 21.8019 46.1119 20.4909 46.3516 19.4333C46.5845 18.4086 47.6047 17.4441 47.6047 16.3489L47.6058 16.3512ZM32.3306 27.9831C32.3306 29.0283 31.6524 29.9292 30.6447 30.2257C30.5481 30.2541 30.4516 30.2836 30.355 30.3131C29.862 30.4642 29.3519 30.621 28.8145 30.621C28.5442 30.621 28.2692 30.554 28.0193 30.4267C27.5808 30.2041 27.1991 29.8519 26.8299 29.5122C26.4788 29.1885 26.1153 28.8533 25.7575 28.6977C25.336 28.5102 24.8872 28.4307 24.4124 28.3467C23.3559 28.1592 22.0415 27.9263 21.6223 26.1427C21.3258 25.218 20.7032 24.4398 19.8671 23.949C18.1926 23.0243 18.2664 21.7258 18.3255 20.6818C18.3743 19.8161 18.4209 18.9982 17.7506 18.1052L17.7211 18.0655L17.6961 18.0223C17.3814 17.4713 17.0554 16.9022 17.0554 16.3069C17.0554 15.7116 17.3814 15.1413 17.6961 14.5915L17.7211 14.5483L17.7506 14.5085C18.422 13.6145 18.3755 12.7977 18.3255 11.932C18.2664 10.8891 18.1914 9.59175 19.8625 8.66702C20.7009 8.17738 21.3246 7.39806 21.6223 6.47105C22.0415 4.6886 23.3593 4.45344 24.4203 4.26486C24.8941 4.18079 25.3405 4.10013 25.7631 3.91496C26.1164 3.76045 26.4788 3.42646 26.8299 3.10155C27.2002 2.76074 27.5819 2.40743 28.0204 2.1859C28.2704 2.0598 28.5442 1.99278 28.8145 1.99278H28.8179C29.3519 1.99278 29.862 2.14955 30.3573 2.30178C30.4527 2.33132 30.5493 2.36085 30.6447 2.38925C31.6535 2.68576 32.3317 3.58664 32.3317 4.6318V27.9831H32.3306Z" fill="#3F3F46"/>
<path d="M30.4198 3.15162C30.3199 3.12208 30.2199 3.09141 30.121 3.06074C29.6644 2.91987 29.2327 2.78809 28.818 2.78809H28.8146C28.6635 2.78809 28.5147 2.82785 28.3795 2.89601C28.0398 3.06755 27.7115 3.37087 27.3684 3.68669C26.9697 4.05477 26.5562 4.43534 26.0813 4.64324C25.5735 4.86704 25.0577 4.95906 24.559 5.04767C23.5127 5.23398 22.6868 5.38167 22.3914 6.67107L22.3869 6.68811C22.0313 7.8162 21.2758 8.76366 20.2545 9.35781C19.014 10.0417 19.0606 10.8551 19.1196 11.8855C19.173 12.8102 19.2321 13.8577 18.3869 14.9846C18.1108 15.4674 17.8518 15.9241 17.8518 16.3058C17.8518 16.6875 18.1108 17.1431 18.3869 17.6271C19.231 18.7517 19.1719 19.8003 19.1196 20.7262C19.0617 21.7577 19.0151 22.5734 20.2591 23.2573C21.277 23.8503 22.0336 24.7977 22.3869 25.9247L22.3914 25.9417C22.6879 27.2334 23.5104 27.3788 24.551 27.564C25.052 27.6526 25.5701 27.7446 26.0802 27.9707C26.5562 28.1786 26.9697 28.5592 27.3696 28.9284C27.7126 29.2442 28.0398 29.5464 28.3795 29.7191C28.5147 29.7872 28.6635 29.827 28.8157 29.827H28.818C29.2327 29.827 29.6644 29.6941 30.121 29.5532C30.221 29.5225 30.3199 29.4919 30.4198 29.4623C31.0867 29.2658 31.5354 28.6716 31.5354 27.9821V4.63188C31.5354 3.9423 31.0867 3.34815 30.4198 3.15162Z" fill="#3F3F46"/>
</g>
<defs>
<clipPath id="clip0_691_217">
<rect width="47.6058" height="40" fill="white"/>
</clipPath>
</defs>
</svg>
