<svg width="140" height="117" viewBox="0 0 140 117" fill="none" xmlns="http://www.w3.org/2000/svg">
<g clip-path="url(#clip0_571_158)">
<path d="M1.5 116.849V106.952H2.56574V116.849H1.5Z" fill="#1F1F1F"/>
<path d="M5.00766 116.849V109.773H6.02997V110.805C6.1469 110.601 6.31061 110.41 6.51774 110.236C6.72488 110.061 6.97878 109.924 7.27612 109.817C7.57346 109.713 7.91089 109.659 8.28173 109.659C8.73609 109.659 9.1537 109.75 9.52788 109.931C9.90206 110.112 10.2027 110.39 10.4266 110.768C10.6504 111.147 10.7607 111.633 10.7607 112.226V116.846H9.69493V112.323C9.69493 111.72 9.54125 111.274 9.23723 110.989C8.9332 110.701 8.52896 110.557 8.02782 110.557C7.68705 110.557 7.36633 110.611 7.06565 110.721C6.76497 110.832 6.52442 110.996 6.34067 111.221C6.16027 111.445 6.06672 111.723 6.06672 112.061V116.846H5.00098L5.00766 116.849Z" fill="#1F1F1F"/>
<path d="M15.3685 116.987C14.4631 116.987 13.7415 116.675 13.2036 116.052C12.6657 115.429 12.3984 114.507 12.3984 113.284C12.3984 112.551 12.5053 111.911 12.7192 111.365C12.933 110.818 13.2537 110.396 13.6847 110.091C14.1157 109.787 14.6535 109.636 15.2983 109.636C15.6591 109.636 15.9732 109.683 16.2471 109.777C16.5211 109.87 16.7516 109.988 16.9454 110.128C17.1392 110.269 17.2928 110.413 17.4098 110.561C17.5267 110.708 17.6102 110.832 17.667 110.936V106.677H18.7394V116.849H17.9009L17.7906 115.399C17.7505 115.522 17.6804 115.673 17.5868 115.851C17.49 116.028 17.353 116.206 17.1692 116.377C16.9888 116.551 16.7483 116.695 16.4576 116.812C16.1636 116.93 15.8028 116.987 15.3685 116.987ZM15.5389 116.139C16.3073 116.139 16.8552 115.911 17.1793 115.452C17.5033 114.993 17.667 114.249 17.667 113.217C17.657 112.648 17.5835 112.159 17.4465 111.753C17.3062 111.348 17.0857 111.036 16.785 110.818C16.481 110.601 16.0768 110.494 15.5656 110.494C14.9475 110.494 14.4431 110.711 14.0555 111.15C13.668 111.589 13.4742 112.276 13.4742 113.217C13.4742 114.159 13.6479 114.846 13.992 115.365C14.3362 115.884 14.8507 116.142 15.5355 116.142L15.5389 116.139Z" fill="#1F1F1F"/>
<path d="M21.0276 108.135V106.959H22.1468V108.135H21.0276ZM21.0744 116.849V109.773H22.1134V116.849H21.0744Z" fill="#1F1F1F"/>
<path d="M26.283 116.987C25.822 116.987 25.4211 116.906 25.0703 116.745C24.7195 116.585 24.4522 116.353 24.2584 116.052C24.0647 115.75 23.9678 115.388 23.9678 114.963C23.9678 114.179 24.235 113.596 24.7729 113.217C25.3108 112.839 26.1761 112.634 27.3721 112.601L28.7319 112.561V111.971C28.7319 111.509 28.5916 111.143 28.3143 110.865C28.037 110.587 27.606 110.453 27.0247 110.457C26.587 110.457 26.2095 110.557 25.8888 110.762C25.5681 110.966 25.3643 111.291 25.2774 111.736H24.3085C24.3353 111.294 24.4589 110.916 24.6794 110.604C24.8999 110.292 25.2139 110.051 25.6182 109.884C26.0224 109.716 26.5069 109.632 27.0715 109.632C27.6361 109.632 28.1506 109.72 28.5481 109.89C28.9457 110.061 29.2464 110.316 29.4535 110.658C29.6607 110.999 29.7609 111.418 29.7609 111.921V116.849H28.8455L28.772 115.486C28.4913 116.045 28.1305 116.437 27.6962 116.655C27.2619 116.873 26.7908 116.983 26.2797 116.983L26.283 116.987ZM26.5837 116.186C26.8343 116.186 27.0848 116.139 27.3421 116.048C27.5993 115.958 27.8298 115.831 28.037 115.673C28.2475 115.512 28.4145 115.335 28.5415 115.141C28.6684 114.943 28.7319 114.742 28.7319 114.537V113.278L27.5993 113.298C27.0046 113.308 26.5135 113.365 26.1327 113.475C25.7518 113.586 25.4678 113.753 25.2874 113.978C25.107 114.202 25.0135 114.501 25.0135 114.866C25.0135 115.281 25.1605 115.606 25.4511 115.837C25.7418 116.069 26.1193 116.186 26.5837 116.186Z" fill="#1F1F1F"/>
<path d="M35.4766 116.849V106.952H36.5423V111.237H42.1383V106.952H43.204V116.849H42.1383V112.202H36.5423V116.849H35.4766Z" fill="#1F1F1F"/>
<path d="M49.4418 116.987C48.5631 116.987 47.8181 116.786 47.2067 116.387C46.5953 115.988 46.1276 115.409 45.8035 114.648C45.4795 113.887 45.3191 112.966 45.3191 111.881C45.3191 110.795 45.4795 109.874 45.8002 109.123C46.1209 108.369 46.5886 107.796 47.2034 107.404C47.8181 107.012 48.5631 106.815 49.4418 106.815C50.1233 106.815 50.728 106.959 51.2559 107.247C51.7837 107.535 52.208 107.917 52.5254 108.389C52.8428 108.865 53.0332 109.381 53.0933 109.937H51.9474C51.8706 109.539 51.7269 109.177 51.5131 108.848C51.3026 108.52 51.022 108.259 50.6712 108.061C50.3204 107.863 49.9061 107.766 49.4217 107.766C48.7836 107.766 48.2491 107.914 47.8147 108.212C47.3804 108.51 47.053 108.962 46.8325 109.572C46.612 110.182 46.5018 110.956 46.5018 111.897C46.5018 113.311 46.749 114.353 47.2434 115.027C47.7379 115.697 48.4629 116.032 49.425 116.032C49.9061 116.032 50.3237 115.931 50.6745 115.727C51.0253 115.522 51.306 115.254 51.5164 114.919C51.7269 114.584 51.8739 114.219 51.9508 113.82H53.0967C53.0466 114.226 52.933 114.621 52.7593 115C52.5822 115.382 52.345 115.72 52.041 116.018C51.7369 116.317 51.3694 116.554 50.9351 116.725C50.5008 116.899 50.003 116.987 49.4451 116.987H49.4418Z" fill="#1F1F1F"/>
<path d="M55.2083 116.849V106.952H56.274V116.849H55.2083Z" fill="#1F1F1F"/>
<path d="M61.7763 116.849V115.358C61.7763 114.856 61.8698 114.424 62.0569 114.055C62.244 113.686 62.4912 113.368 62.7986 113.097C63.106 112.825 63.4434 112.588 63.8075 112.383C64.175 112.179 64.5425 111.984 64.91 111.8C65.2775 111.619 65.615 111.435 65.9223 111.251C66.2297 111.066 66.4769 110.859 66.664 110.631C66.8511 110.403 66.9446 110.135 66.9446 109.823C66.9446 109.428 66.8077 109.103 66.5304 108.852C66.2564 108.601 65.8789 108.477 65.4011 108.477C64.9234 108.477 64.4824 108.621 64.1383 108.909C63.7908 109.197 63.577 109.629 63.4968 110.209H61.5925C61.6026 109.579 61.7495 109.006 62.0335 108.493C62.3175 107.981 62.7451 107.572 63.3131 107.27C63.881 106.969 64.596 106.818 65.4579 106.818C66.1963 106.818 66.831 106.945 67.3656 107.193C67.9001 107.441 68.3144 107.793 68.6051 108.239C68.8957 108.688 69.0427 109.207 69.0427 109.807C69.0427 110.306 68.9525 110.735 68.7688 111.093C68.5884 111.455 68.3445 111.763 68.0438 112.018C67.7431 112.273 67.4124 112.497 67.0549 112.688C66.6974 112.879 66.3366 113.057 65.9791 113.221C65.6216 113.385 65.2942 113.552 64.9936 113.723C64.6929 113.894 64.4523 114.088 64.2686 114.303C64.0882 114.517 63.9946 114.775 63.9946 115.077V115.167H69.026V116.853H61.7763V116.849Z" fill="#1F1F1F"/>
<path d="M74.0808 117C72.8848 117 71.9493 116.564 71.2778 115.693C70.6063 114.822 70.2722 113.566 70.2722 111.927C70.2722 110.832 70.4259 109.904 70.7366 109.14C71.0473 108.379 71.485 107.8 72.0529 107.404C72.6209 107.009 73.2991 106.811 74.0808 106.811C75.2535 106.811 76.1823 107.25 76.8605 108.128C77.5387 109.006 77.8761 110.269 77.8761 111.917C77.8761 113.566 77.542 114.812 76.8738 115.687C76.2056 116.561 75.2735 116.997 74.0808 116.997V117ZM74.0808 115.365C74.6688 115.365 75.0965 115.1 75.3704 114.574C75.6444 114.048 75.7813 113.164 75.7813 111.927C75.7813 110.691 75.641 109.756 75.3637 109.21C75.0864 108.664 74.6555 108.389 74.0742 108.389C73.4928 108.389 73.0585 108.664 72.7745 109.217C72.4906 109.77 72.3469 110.671 72.3469 111.927C72.3469 113.184 72.4872 114.042 72.7712 114.571C73.0518 115.1 73.4895 115.365 74.0808 115.365Z" fill="#1F1F1F"/>
<path d="M79.2426 116.849V115.358C79.2426 114.856 79.3361 114.424 79.5232 114.055C79.7103 113.686 79.9575 113.368 80.2649 113.097C80.5723 112.825 80.9097 112.588 81.2738 112.383C81.6413 112.179 82.0088 111.984 82.3763 111.8C82.7438 111.619 83.0813 111.435 83.3886 111.251C83.696 111.066 83.9432 110.859 84.1303 110.631C84.3174 110.403 84.4109 110.135 84.4109 109.823C84.4109 109.428 84.274 109.103 83.9967 108.852C83.7227 108.601 83.3452 108.477 82.8675 108.477C82.3897 108.477 81.9487 108.621 81.6046 108.909C81.2571 109.197 81.0433 109.629 80.9631 110.209H79.0588C79.0689 109.579 79.2159 109.006 79.4998 108.493C79.7838 107.981 80.2114 107.572 80.7794 107.27C81.3473 106.969 82.0623 106.818 82.9243 106.818C83.6626 106.818 84.2974 106.945 84.8319 107.193C85.3664 107.441 85.7807 107.793 86.0714 108.239C86.362 108.688 86.509 109.207 86.509 109.807C86.509 110.306 86.4188 110.735 86.2351 111.093C86.0547 111.455 85.8108 111.763 85.5101 112.018C85.2094 112.273 84.8787 112.497 84.5212 112.688C84.1637 112.879 83.8029 113.057 83.4454 113.221C83.088 113.385 82.7605 113.552 82.4599 113.723C82.1592 113.894 81.9186 114.088 81.7349 114.303C81.5545 114.517 81.4609 114.775 81.4609 115.077V115.167H86.4923V116.853H79.2426V116.849Z" fill="#1F1F1F"/>
<path d="M91.5068 117C90.715 116.997 90.0402 116.863 89.4822 116.608C88.9243 116.35 88.4967 115.981 88.1993 115.502C87.902 115.023 87.7483 114.454 87.7383 113.79H89.6559C89.7528 114.353 89.97 114.759 90.3108 115.01C90.6515 115.261 91.0558 115.385 91.5268 115.385C91.9378 115.385 92.2886 115.325 92.5826 115.208C92.8766 115.09 93.1004 114.923 93.2574 114.712C93.4145 114.501 93.4913 114.256 93.4913 113.981C93.4913 113.707 93.4111 113.455 93.2508 113.248C93.0904 113.043 92.8665 112.882 92.5792 112.765C92.2919 112.648 91.9645 112.584 91.597 112.577L90.6549 112.544V110.956L91.5001 110.909C91.8543 110.896 92.165 110.829 92.4289 110.711C92.6928 110.594 92.9 110.433 93.047 110.236C93.194 110.038 93.2675 109.813 93.2675 109.562C93.2675 109.311 93.194 109.11 93.0436 108.932C92.8933 108.755 92.6861 108.614 92.4222 108.513C92.1583 108.413 91.8543 108.363 91.5135 108.363C91.1994 108.363 90.9121 108.416 90.6482 108.52C90.3843 108.624 90.1671 108.798 90.0001 109.036C89.833 109.274 89.7328 109.596 89.7061 109.998H87.8018C87.8018 109.287 87.9688 108.694 88.3029 108.225C88.637 107.756 89.088 107.401 89.6593 107.167C90.2272 106.932 90.862 106.815 91.5569 106.815C92.2953 106.815 92.9501 106.912 93.5247 107.103C94.0993 107.294 94.5537 107.585 94.8878 107.977C95.2185 108.369 95.3856 108.869 95.3856 109.468C95.3856 109.957 95.2453 110.386 94.9613 110.758C94.6773 111.13 94.2196 111.425 93.5815 111.646C93.9457 111.747 94.2831 111.901 94.5905 112.105C94.9012 112.309 95.1484 112.574 95.3355 112.892C95.5226 113.211 95.6161 113.596 95.6161 114.042C95.6161 114.524 95.5092 114.953 95.2954 115.321C95.0816 115.69 94.7842 116.002 94.4067 116.253C94.0292 116.504 93.5915 116.692 93.0971 116.812C92.6026 116.936 92.0714 116.997 91.5068 116.997V117Z" fill="#1F1F1F"/>
<path d="M93.4213 0H2.67271C1.19661 0 0 1.20003 0 2.68034V94.0027C0 95.483 1.19661 96.6831 2.67271 96.6831H93.4213C94.8974 96.6831 96.094 95.483 96.094 94.0027V2.68034C96.094 1.20003 94.8974 0 93.4213 0Z" fill="#1F1F1F"/>
<path d="M140 48.2226C140 51.4524 137 54.2969 136.315 57.3189C135.606 60.4382 137.063 64.3046 135.71 67.1189C134.334 69.9802 130.398 71.2399 128.44 73.6992C126.476 76.1684 126.115 80.2928 123.656 82.2662C121.207 84.2295 117.118 83.6666 114.265 85.047C111.458 86.4039 109.357 89.9721 106.247 90.6824C103.233 91.3693 99.8054 89.0843 96.5848 89.0843C93.3642 89.0843 89.9331 91.3693 86.9229 90.6824C83.9128 89.9956 81.7111 86.4039 78.9048 85.047C76.0517 83.6666 71.9658 84.2295 69.5136 82.2662C67.0513 80.2961 66.6938 76.1684 64.7294 73.6992C62.7716 71.2433 58.8361 69.9802 57.4596 67.1189C56.1066 64.3046 57.5599 60.4382 56.8549 57.3189C56.15 54.1997 53.1699 51.4524 53.1699 48.2226C53.1699 44.9928 56.17 42.1482 56.8549 39.1262C57.5632 36.0069 56.1066 32.1405 57.4596 29.3262C58.8361 26.4649 62.7716 25.2052 64.7294 22.746C66.6938 20.2767 67.0547 16.1523 69.5136 14.1789C71.9624 12.2156 76.0517 12.7785 78.9048 11.3981C81.7111 10.0412 83.8126 6.47298 86.9229 5.76269C89.9364 5.07585 93.3642 7.36084 96.5848 7.36084C99.8054 7.36084 103.236 5.07585 106.247 5.76269C109.357 6.47298 111.458 10.0412 114.265 11.3981C117.118 12.7785 121.204 12.2156 123.656 14.1789C126.118 16.149 126.476 20.2767 128.44 22.746C130.398 25.2018 134.334 26.4649 135.71 29.3262C137.063 32.1405 135.61 36.0069 136.315 39.1262C137 42.1482 140 44.9928 140 48.2226Z" fill="url(#paint0_linear_571_158)"/>
<path d="M88.0924 87.962C88.0924 87.962 88.0891 87.962 88.0857 87.962C87.6414 87.962 87.2004 87.8447 86.8028 87.6437C85.8039 87.1344 84.8417 86.2465 83.8328 85.3118C82.6568 84.2229 81.4407 83.1005 80.0408 82.4874C78.5408 81.8206 77.0173 81.5493 75.544 81.2879C72.4837 80.7452 70.0649 80.313 69.193 76.5035L69.1796 76.4533C68.1373 73.1297 65.9156 70.3388 62.9221 68.5865C59.2638 66.5695 59.3975 64.1639 59.5712 61.1217C59.7249 58.3912 59.8986 55.2987 57.4163 51.9818C56.6045 50.5545 55.8428 49.2077 55.8428 48.0853C55.8428 46.9629 56.6045 45.616 57.4163 44.1887C59.902 40.8651 59.7282 37.776 59.5712 35.0488C59.3975 32.01 59.2605 29.6111 62.9088 27.5941C65.9122 25.8418 68.1373 23.0476 69.1796 19.7206L69.193 19.6704C70.0616 15.8676 72.4904 15.4321 75.5674 14.8826C77.034 14.6213 78.5508 14.3499 80.0442 13.6899C81.4407 13.0767 82.6534 11.9543 83.8294 10.8688C84.8384 9.93404 85.8039 9.04283 86.8028 8.53692C87.2004 8.33589 87.638 8.21863 88.0824 8.21863C88.0824 8.21863 88.089 8.21863 88.0924 8.21863C89.3118 8.21863 90.5814 8.61063 91.9244 9.02273C92.2184 9.11319 92.509 9.20365 92.803 9.29076C94.7641 9.87038 96.0838 11.6227 96.0838 13.6564V82.5242C96.0838 84.5579 94.7641 86.3102 92.803 86.8898C92.509 86.9769 92.2184 87.0674 91.9244 87.1579C90.5814 87.5733 89.3085 87.9653 88.0924 87.9653V87.962Z" fill="#1F1F1F"/>
</g>
<defs>
<linearGradient id="paint0_linear_571_158" x1="62.2204" y1="26.3678" x2="133.27" y2="71.2914" gradientUnits="userSpaceOnUse">
<stop stop-color="#FFAA00"/>
<stop offset="0.29" stop-color="#FF7C13"/>
<stop offset="0.95" stop-color="#FF0943"/>
<stop offset="1" stop-color="#FF0048"/>
</linearGradient>
<clipPath id="clip0_571_158">
<rect width="140" height="117" fill="white"/>
</clipPath>
</defs>
</svg>
